<?xml version="1.0" encoding="UTF-8" standalone="no"?>
<!-- Created with Inkscape (http://www.inkscape.org/) -->

<svg
   xmlns:dc="http://purl.org/dc/elements/1.1/"
   xmlns:cc="http://creativecommons.org/ns#"
   xmlns:rdf="http://www.w3.org/1999/02/22-rdf-syntax-ns#"
   xmlns:svg="http://www.w3.org/2000/svg"
   xmlns="http://www.w3.org/2000/svg"
   xmlns:sodipodi="http://sodipodi.sourceforge.net/DTD/sodipodi-0.dtd"
   xmlns:inkscape="http://www.inkscape.org/namespaces/inkscape"
   width="219.44174mm"
   height="113.00163mm"
   viewBox="0 0 777.54948 400.39946"
   id="svg2"
   version="1.1"
   inkscape:version="0.91 r13725"
   sodipodi:docname="agn-refined.svg">
  <defs
     id="defs4">
    <clipPath
       clipPathUnits="userSpaceOnUse"
       id="clipPath3349">
      <rect
         style="fill:#4b4b4b;fill-opacity:1;fill-rule:nonzero;stroke:none;stroke-width:1.5;stroke-miterlimit:4;stroke-dasharray:none;stroke-opacity:1"
         id="rect3351"
         width="364.66507"
         height="423.25391"
         x="159.6041"
         y="62.412712"
         transform="matrix(0,1,-1,0,0,0)" />
    </clipPath>
  </defs>
  <sodipodi:namedview
     id="base"
     pagecolor="#ffffff"
     bordercolor="#666666"
     borderopacity="1.0"
     inkscape:pageopacity="0.0"
     inkscape:pageshadow="2"
     inkscape:zoom="3.959798"
     inkscape:cx="285.20075"
     inkscape:cy="83.699368"
     inkscape:document-units="px"
     inkscape:current-layer="layer3"
     showgrid="false"
     inkscape:window-width="1920"
     inkscape:window-height="1027"
     inkscape:window-x="-8"
     inkscape:window-y="-8"
     inkscape:window-maximized="1"
     inkscape:snap-global="false"
     fit-margin-top="0"
     fit-margin-left="0"
     fit-margin-right="0"
     fit-margin-bottom="0" />
  <metadata
     id="metadata7">
    <rdf:RDF>
      <cc:Work
         rdf:about="">
        <dc:format>image/svg+xml</dc:format>
        <dc:type
           rdf:resource="http://purl.org/dc/dcmitype/StillImage" />
        <dc:title></dc:title>
      </cc:Work>
    </rdf:RDF>
  </metadata>
  <g
     inkscape:label="Layer 1"
     inkscape:groupmode="layer"
     id="layer1"
     style="display:inline"
     transform="translate(17.758242,-83.000065)">
    <path
       style="fill:#000000"
       d="m 504.65655,118.9508 c -1.42563,2.82315 -1.60356,2.96597 -5.14531,4.12904 -3.3736,1.10785 -3.7977,1.14033 -5.27387,0.40392 -0.88288,-0.44045 -1.95722,-0.8008 -2.38741,-0.8008 -0.62137,0 -0.65098,-0.15806 -0.14403,-0.76891 0.46625,-0.5618 1.32463,-0.68758 3.18688,-0.46702 2.14225,0.2537 2.94408,0.0702 5.02741,-1.15077 1.36326,-0.79888 2.8341,-1.96004 3.26854,-2.58026 1.0191,-1.455 1.01327,-4.59494 -0.0112,-6.05766 -0.705,-1.00656 -1.2321,-1.12648 -4.39327,-0.99996 -1.97569,0.0791 -4.32523,0.52293 -5.2212,0.98638 -2.25538,1.16654 -3.30147,0.42059 -1.62233,-1.15684 0.96449,-0.90613 2.32711,-1.33774 5.44499,-1.72482 4.94148,-0.61352 6.17324,-0.37921 7.336,1.39541 1.60322,2.44681 1.58034,5.53366 -0.0652,8.79229 z m -15.80756,3.19964 c -0.42881,0 -0.67503,-0.40024 -0.57326,-0.93191 0.0981,-0.51255 0.2004,-1.05172 0.22729,-1.19816 0.0678,-0.36899 1.07942,1.2381 1.08948,1.73068 0.004,0.21966 -0.33009,0.39939 -0.74351,0.39939 z m -1.24949,-4.56656 c -0.10482,0.1048 -0.6627,0.0671 -1.23973,-0.0838 -0.77672,-0.20316 -0.96515,-0.56836 -0.72569,-1.40654 0.1779,-0.62267 0.43652,-1.53924 0.57472,-2.03688 0.43195,-1.55533 1.58129,-0.48608 1.58129,1.47113 0,1.026 -0.0858,1.9512 -0.19059,2.05605 z m -5.26903,307.56925 c -0.45108,1.31798 -0.98003,2.56731 -1.17544,2.77628 -0.19542,0.20898 -1.90969,0.50947 -3.80948,0.66775 -1.8998,0.1583 -4.18065,0.42353 -5.06856,0.58941 -0.89179,0.1666 -2.67945,-0.0692 -3.99389,-0.52688 -1.30872,-0.45566 -3.00505,-0.83195 -3.76961,-0.83622 -0.76456,-0.004 -2.31925,-0.63828 -3.45486,-1.40893 -1.13561,-0.77064 -3.35247,-2.02871 -4.92635,-2.79571 -2.33987,-1.14029 -2.98498,-1.75865 -3.53825,-3.39149 -0.42132,-1.24338 -0.47478,-1.99694 -0.14168,-1.99694 0.35055,0 0.35555,-0.22948 0.0145,-0.66565 -0.83454,-1.06733 -1.66231,-3.93106 -1.28625,-4.44985 0.18975,-0.26177 1.36344,-1.03044 2.6082,-1.70817 1.75609,-0.95614 2.2632,-1.06024 2.2632,-0.4646 0,0.42221 -0.35945,1.06596 -0.79877,1.43057 -1.26251,1.04778 -0.96067,1.93289 1.46442,4.29432 1.95596,1.90461 2.14695,2.27998 1.40691,2.76507 -0.70812,0.46416 -0.24736,0.8791 2.66259,2.39784 1.93538,1.0101 4.41207,2.4395 5.50375,3.17645 2.47621,1.67158 5.88368,2.08465 9.99667,1.21181 2.9395,-0.6238 3.19559,-0.79581 3.47451,-2.33367 0.52916,-2.91764 -0.14318,-5.72255 -1.73032,-7.21865 -2.94895,-2.77979 -7.42336,-4.44858 -12.99118,-4.84522 -5.57392,-0.39708 -6.43736,-0.66817 -5.97401,-1.87562 0.22899,-0.59674 1.12299,-0.78047 3.57124,-0.73391 5.63619,0.10719 9.63932,0.96155 13.45906,2.87249 4.11007,2.05618 5.80281,3.93164 6.32351,7.00607 0.19279,1.13826 0.43595,2.42902 0.54037,2.86834 0.10441,0.43933 -0.17922,1.87713 -0.6303,3.19511 z m -5.77816,-213.1664 c -0.44024,0.62852 -1.69831,1.43558 -2.79572,1.79348 -1.09741,0.35789 -2.56678,1.09513 -3.26527,1.63831 -0.69849,0.54317 -1.81846,0.98759 -2.48883,0.98759 -0.67038,0 -2.38613,0.26944 -3.81279,0.59875 -2.45847,0.56748 -2.7481,0.51173 -5.54641,-1.06754 -2.63031,-1.48445 -3.05417,-1.97109 -3.88413,-4.4595 -0.85938,-2.5766 -0.86622,-2.9463 -0.0881,-4.7671 1.00212,-2.34509 2.80447,-4.15008 4.14399,-4.15008 0.53054,0 1.39896,-0.43433 1.92982,-0.96519 0.53085,-0.53085 1.23646,-0.87476 1.56803,-0.76424 0.33156,0.11053 1.11071,-0.0709 1.73144,-0.40306 0.8677,-0.46437 1.3254,-0.44158 1.97993,0.0986 0.67084,0.55363 0.89884,0.56147 1.07537,0.037 0.29044,-0.86292 4.25779,-0.85768 5.94071,0.008 0.70347,0.36179 1.54219,1.13432 1.86382,1.71672 0.32163,0.58241 1.00414,1.63317 1.51669,2.33502 1.16058,1.58923 1.23554,5.78717 0.13148,7.36344 z m -2.30403,-6.82481 c -0.53592,-0.69849 -1.13974,-1.72126 -1.34181,-2.27283 -0.30808,-0.84089 -0.73314,-0.95272 -2.63204,-0.69244 -1.24554,0.17072 -2.58952,0.1096 -2.98662,-0.13582 -1.24974,-0.77239 -6.55145,1.89699 -9.71826,4.89309 -1.99828,1.89055 -0.8352,5.087 2.57901,7.08787 2.29075,1.34246 2.37489,1.35125 5.16679,0.53962 1.56097,-0.45379 3.53006,-1.18592 4.37578,-1.62698 0.84571,-0.44104 1.93962,-0.80338 2.43091,-0.80518 1.2605,-0.005 3.10063,-2.53484 3.10063,-4.26343 0,-0.79966 -0.43848,-2.02541 -0.97439,-2.7239 z m -8.71744,210.29939 c -1.22761,1.2276 -5.972,0.62186 -6.53059,-0.8338 -0.48096,-1.25337 0.59646,-2.09273 1.75642,-1.36832 0.71554,0.44687 1.3839,0.41131 2.70432,-0.14389 0.96463,-0.4056 1.96875,-0.60465 2.23137,-0.44234 0.68297,0.4221 0.58941,2.03742 -0.16152,2.78835 z m -5.08555,65.10601 c -0.80543,0.40964 -2.18332,1.25193 -3.06197,1.87176 -2.30266,1.62434 -7.78607,1.11549 -10.52964,-0.97713 -1.05241,-0.80271 -2.38918,-1.45947 -2.97061,-1.45947 -0.63373,0 -1.51849,-0.7465 -2.20903,-1.86382 -0.63355,-1.02509 -1.49181,-1.86381 -1.90725,-1.86381 -1.78109,0 0.31949,-6.99579 2.28963,-7.62538 0.5219,-0.16678 2.364,-0.79582 4.09355,-1.39785 5.21946,-1.81683 8.52515,-1.24027 8.20469,1.43099 -0.13641,1.13698 0.10765,1.46111 1.35204,1.79565 0.83517,0.22452 2.33125,0.96162 3.3246,1.63798 1.41666,0.9646 1.80689,1.59617 1.80975,2.92902 0.002,0.93459 0.24327,1.84736 0.53615,2.02837 1.09885,0.67913 0.54901,2.74049 -0.93191,3.49369 z m -2.13007,-6.69751 c -0.80543,-0.70891 -1.77971,-1.2965 -2.16508,-1.30576 -0.38536,-0.009 -1.22407,-0.30595 -1.86381,-0.65933 -2.34773,-1.29685 -10.7276,-1.47041 -11.9505,-0.24751 -1.32026,1.32026 0.0197,3.52592 3.53304,5.81581 3.26056,2.12511 4.7277,2.35517 10.55479,1.65516 2.80471,-0.33693 2.99477,-0.52669 3.28347,-3.27826 0.0399,-0.38016 -0.58647,-1.27121 -1.39191,-1.98011 z M 397.32137,297.92428 c 0,-0.22135 -0.77466,-0.35535 -1.6443,-0.68361 -1.93923,-0.73198 -3.50799,-3.70805 -3.00693,-5.70444 0.19153,-0.76312 0.70312,-1.38748 1.13687,-1.38748 1.01015,0 1.02713,-1.00695 0.0235,-1.39208 -0.42581,-0.1634 -0.62702,-0.65355 -0.45371,-1.10521 0.23237,-0.60554 0.79608,-0.73295 2.22027,-0.50184 1.47679,0.23966 2.33279,0.0217 3.78195,-0.96309 1.81088,-1.23057 1.985,-1.24922 5.24004,-0.56127 4.6362,0.97986 4.88711,1.11463 4.88711,2.6249 0,1.35736 -1.43557,4.90629 -2.39633,5.92408 -0.29289,0.31026 -1.79059,1.24697 -3.32824,2.08157 -1.53764,0.8346 -2.79572,1.719 -2.79572,1.96534 m -1.13642,2.46225 c 0,0.24634 1.84366,1.29118 2.65951,1.45803 0.81585,0.16685 2.38921,0.22879 3.06198,0.50842 5.28579,2.19701 9.75429,3.74995 10.96527,3.81078 0.79246,0.0398 4.13786,-0.0952 7.43425,-0.30004 6.86731,-0.42672 8.4112,-0.0847 12.987,2.87696 1.65269,1.06969 4.35627,2.40424 6.00795,2.96567 1.65169,0.56142 4.13362,1.96049 5.5154,3.10903 1.38178,1.14854 3.28695,2.41575 4.23369,2.816 1.16775,0.49369 1.82156,1.19766 2.03292,2.18891 0.17136,0.80365 0.77465,2.80376 1.34063,4.4447 1.1863,3.43943 1.2438,4.0099 0.45338,4.4984 l -5e-5,6e-5 c -0.31661,0.19568 -0.43627,0.91119 -0.26589,1.59004 0.58603,2.33492 -1.49338,3.23077 -8.41707,3.6262 -5.16869,0.29521 -6.53239,0.56614 -8.68723,1.7259 -2.19013,1.17877 -2.93728,1.32151 -5.21867,0.99703 -4.03344,-0.57365 -12.13305,-0.80701 -24.22957,-0.69807 -24.01435,0.21627 -23.93228,0.22103 -27.53055,-1.59537 -3.78825,-1.91231 -7.80529,-2.58253 -10.38189,-1.73217 -1.0006,0.33022 -4.83128,0.65711 -8.51264,0.72641 l -6.69337,0.12602 -0.60149,2.39633 c -0.57393,2.28659 -1.50951,9.90251 -1.94173,15.80642 -0.11112,1.51786 -0.55557,4.034 -0.98767,5.59144 -0.4321,1.55744 -0.94094,5.22804 -1.13076,8.15688 -0.18982,2.92885 -0.66139,6.64317 -1.04794,8.25403 -1.35609,5.65133 -1.61228,12.21729 -1.55831,39.93885 0.0562,28.88896 0.29145,32.82409 2.33935,39.14006 0.56979,1.75731 1.93062,6.12657 3.02406,9.70947 1.09343,3.5829 2.51367,7.12604 3.15608,7.87366 0.7005,0.81523 1.05822,1.77911 0.89373,2.40815 -0.15086,0.57687 0.033,1.41905 0.40846,1.87152 0.55853,0.67299 0.54517,0.96025 -0.0734,1.57885 -1.1777,1.1777 -2.97449,0.36672 -3.97548,-1.79434 -0.49528,-1.06928 -1.34454,-2.43302 -1.88724,-3.03052 -1.14368,-1.25918 -3.33056,-7.03392 -4.18493,-11.05083 -0.32442,-1.52531 -1.30457,-4.63292 -2.17812,-6.90579 -0.87355,-2.27287 -1.73907,-5.57526 -1.92338,-7.33865 -0.38309,-3.66522 -0.97049,-4.36044 -2.16738,-2.56518 -1.31329,1.96984 -6.447,6.74832 -7.66548,7.13505 -0.60556,0.1922 -4.01321,2.327 -7.57257,4.74401 -3.55935,2.41702 -8.1769,5.38077 -10.26121,6.58612 -3.58507,2.07324 -3.96772,2.48719 -7.08797,7.6679 -4.06203,6.74438 -5.97096,8.91266 -9.22509,10.47835 -1.3913,0.66941 -2.73603,1.58592 -2.98829,2.03669 -0.78154,1.39652 -1.16894,-0.13234 -0.51989,-2.05174 0.33325,-0.98552 1.70827,-3.41572 3.0556,-5.40043 1.34733,-1.98472 2.90893,-4.38105 3.47022,-5.32518 0.56129,-0.94414 2.04258,-3.28175 3.29175,-5.19469 3.06899,-4.6998 4.75093,-8.21862 5.52891,-11.56719 0.35746,-1.53855 0.86548,-2.93058 1.12893,-3.0934 0.26346,-0.16283 0.47901,-0.728 0.47901,-1.25594 0,-0.52795 0.94273,-2.97163 2.09496,-5.43041 1.15222,-2.45878 2.72711,-6.84641 3.49976,-9.75029 0.77265,-2.90388 2.0827,-6.62266 2.91121,-8.26394 1.89082,-3.74568 2.57217,-6.2629 2.96704,-10.96148 0.17153,-2.04116 1.04208,-6.10753 1.93455,-9.03638 1.92287,-8.02073 2.43702,-14.04395 3.08889,-18.90439 0.24781,-1.90375 0.92486,-5.01898 1.50457,-6.92273 0.5797,-1.90375 1.45878,-5.1388 1.9535,-7.18899 0.49473,-2.05019 1.23007,-4.92579 1.6341,-6.39022 0.40403,-1.46442 0.87216,-5.41837 1.04028,-8.78654 0.16814,-3.36818 0.52846,-7.56176 0.80073,-9.31906 0.27228,-1.75731 0.573,-6.20413 0.66828,-9.88181 l 0.17323,-6.6867 -2.34747,0.13829 c -1.2911,0.0761 -2.73824,0.4707 -3.21587,0.87699 -0.47762,0.40629 -2.36611,1.2855 -4.19664,1.9538 l -3.32824,1.21511 -3.06198,-1.08173 c -8.93991,-3.15827 -10.68892,-3.50979 -14.22308,-2.8586 -7.26567,1.33876 -14.46324,0.40964 -18.92616,-2.44312 -7.82616,-5.00259 -8.05507,-5.18794 -7.67207,-6.21229 0.29234,-0.78188 -5.08746,-2.36028 -9.3685,-2.74865 -2.25434,-0.20451 -4.61438,-0.0388 -6.76783,0.47523 l -3.30646,0.78923 -2.44842,-1.55275 c -1.41398,-0.89672 -2.66574,-2.17614 -2.96279,-3.02825 -0.29633,-0.85006 -1.34043,-1.91909 -2.46316,-2.52197 -1.07184,-0.57554 -3.0034,-2.47783 -4.29236,-4.2273 -2.38384,-3.2355 -2.44036,-3.50111 -1.58938,-7.46951 0.12561,-0.58577 0.72062,-1.31402 1.32224,-1.61834 0.60162,-0.30432 1.41895,-0.82144 1.8163,-1.14915 0.39734,-0.32772 2.11129,-0.95747 3.80877,-1.39944 1.91184,-0.4978 3.98339,-1.53868 5.44365,-2.73525 3.05792,-2.50574 7.28609,-3.92692 12.69075,-4.26566 2.38707,-0.1496 5.46225,-0.5549 6.83373,-0.90065 1.79254,-0.4519 3.6454,-0.48261 6.59049,-0.10921 3.46606,0.43946 4.51704,0.37422 6.82547,-0.42365 3.04944,-1.05399 6.41976,-1.20609 9.74026,-0.43956 1.88098,0.43422 2.77338,0.30306 5.8577,-0.86088 4.22376,-1.59395 6.68213,-1.49172 9.32139,0.3876 1.25505,0.89367 2.84135,1.34339 5.70253,1.61669 3.20339,0.30599 4.21598,0.63079 5.27826,1.69307 1.11303,1.11303 1.20437,1.43229 0.59609,2.08345 -0.62438,0.6684 -1.02694,0.63251 -3.07712,-0.27439 -1.82975,-0.80938 -3.02779,-0.97205 -5.34178,-0.72532 -2.73436,0.29156 -3.15738,0.18558 -5.07482,-1.27144 -1.15049,-0.87424 -2.50851,-1.58952 -3.01782,-1.58952 -0.91724,0 -4.30449,1.4487 -6.87203,2.93913 -1.69781,0.98555 -3.33027,0.97825 -6.65354,-0.0298 -2.93091,-0.889 -4.89808,-0.65602 -7.41381,0.87807 -1.74627,1.06488 -5.88088,1.36862 -6.43459,0.47271 -0.54805,-0.88677 -5.91889,-0.59734 -8.6337,0.46525 -1.40204,0.54878 -4.10679,1.15976 -6.01054,1.35775 -5.95449,0.61926 -8.46769,1.68854 -11.55512,4.91631 -0.93694,0.97954 -2.13511,1.78232 -2.66259,1.78395 -1.93884,0.006 -4.95293,1.13351 -4.95293,1.85278 0,0.40736 1.08013,1.51636 2.4003,2.46443 1.32017,0.94807 2.98778,2.72622 3.7058,3.95143 1.64944,2.81455 3.43052,4.01269 5.41933,3.64559 3.17036,-0.58519 12.85579,1.51543 13.76418,2.98523 0.18375,0.29732 0.86729,0.54059 1.51898,0.54059 0.65168,0 2.73432,1.14562 4.6281,2.54582 4.66186,3.44685 9.6951,6.44579 10.64825,6.34451 0.43051,-0.0457 2.35945,0.10661 4.28652,0.33858 2.56395,0.30862 4.46544,0.19873 7.08892,-0.4097 5.02402,-1.16515 6.1208,-1.07395 12.41544,1.03237 3.06346,1.0251 6.24986,1.86381 7.08089,1.86381 0.83104,0 3.14758,-0.81644 5.14788,-1.81431 4.85755,-2.42325 8.85177,-2.80437 17.06524,-1.62837 3.45115,0.49414 7.0829,1.23126 8.07054,1.63804 2.3411,0.96423 6.58061,0.93339 12.84853,-0.0935 6.1034,-0.9999 8.70951,-0.69767 13.31295,1.54393 l 3.46137,1.68548 21.56697,0.10557 c 11.86184,0.0581 22.87062,0.32903 24.46396,0.60213 2.37712,0.40744 3.42693,0.31422 5.85018,-0.5195 3.79667,-1.30625 5.19946,-1.56735 10.63413,-1.97935 5.5612,-0.42159 5.95095,-0.85357 4.6117,-5.11139 -0.52423,-1.66667 -1.28317,-3.15695 -1.68652,-3.31174 -0.40336,-0.15478 -0.57652,-0.55585 -0.3848,-0.89127 0.19172,-0.33541 0.15747,-0.43719 -0.0761,-0.22617 -0.23357,0.21102 -2.0706,-1.03645 -4.08229,-2.77216 -2.49215,-2.15026 -4.29295,-3.26932 -5.65152,-3.512 -1.09666,-0.1959 -3.79117,-1.19445 -5.98781,-2.219 -3.78735,-1.76649 -4.24171,-1.85345 -8.78654,-1.6816 -10.62207,0.40163 -11.91516,0.26169 -17.00878,-1.84076 -3.91969,-1.6179 -5.80146,-2.05551 -10.65036,-2.47678 -7.47513,-0.64942 -9.28984,-1.10135 -12.41147,-3.09083 -1.39196,-0.88713 -3.48936,-1.77272 -4.6609,-1.96799 -1.17154,-0.19527 -3.47959,-0.7166 -5.12899,-1.15851 -2.37497,-0.6363 -2.61418,-0.98715 -3.55284,-0.4848 -1.37969,0.73838 -2.97213,0.40717 -2.46375,-0.91766 1.10456,-2.87842 26.57638,1.24643 28.47959,4.32587 0.5999,0.97065 -16.20007,-0.0417 -1.62473,-2.68679 m 6.00069,-12.08954 c -1.66325,-0.41937 -2.13482,-0.32577 -3.15467,0.62618 -0.65949,0.61559 -1.85807,1.28281 -2.66351,1.48271 -1.66901,0.41424 -1.82539,0.88306 -0.62647,1.87808 0.74312,0.61673 0.67173,0.78254 -0.63072,1.46496 -1.42067,0.74437 -1.43501,0.79436 -0.43857,1.52954 2.08212,1.5362 7.40031,-0.73025 8.97719,-3.8258 1.07578,-2.11183 0.86383,-2.56892 -1.46325,-3.15567 z m -53.17269,43.8112 c -6.60637,-0.98037 -6.32135,-1.05541 -7.06883,1.8611 -0.66774,2.60538 -0.33826,9.45624 0.47908,9.96138 0.22273,0.13765 2.4679,-1.79878 4.98928,-4.30318 2.52138,-2.50441 4.80337,-4.41809 5.0711,-4.25262 0.48957,0.30258 1.06659,-1.1162 0.85756,-2.10852 -0.0617,-0.29288 -2.00938,-0.81406 -4.32819,-1.15816 z m -0.0998,12.75784 c -0.51847,0.0791 -1.79769,0.67229 -2.84271,1.31815 -1.04502,0.64586 -2.42132,1.25384 -3.05844,1.35108 -2.08042,0.31749 -2.34548,1.12212 -2.29748,6.97427 0.0253,3.0868 -0.16046,5.73999 -0.41285,5.89598 -0.25239,0.15598 -0.6224,1.78174 -0.82225,3.6128 -0.19985,1.83105 -0.46606,4.28772 -0.59158,5.45926 -1.68331,6.55598 -3.94803,11.99061 -4.74082,18.69579 l 4.93363,-4.20044 5.75222,-5.5894 0.71865,-4.98549 c 0.39526,-2.74202 0.81126,-6.42329 0.92444,-8.1806 0.11317,-1.75731 0.67491,-5.71126 1.24829,-8.78655 1.00948,-5.41426 1.93938,-10.49958 2.06862,-11.31266 0.0346,-0.21783 -0.36125,-0.33131 -0.87972,-0.25219 z m -8.539,41.76124 c -1.99319,1.69729 -4.04205,3.62621 -4.55302,4.28648 -0.55833,0.72146 -1.45467,4.12133 -2.24629,8.52029 -0.72449,4.02588 -1.9,9.83593 -2.61225,12.91122 -0.71224,3.07529 -1.44505,6.54997 -1.62844,7.72151 -0.1834,1.17154 -1.26229,4.60234 -2.39753,7.624 -1.13524,3.02165 -2.56725,7.33505 -3.18224,9.58532 -0.61499,2.25027 -2.1563,6.36791 -3.42514,9.15032 -2.10107,4.6074 -5.08708,13.09281 -5.08708,14.45607 0,0.3056 1.13826,-0.10132 2.52946,-0.90427 10.42418,-6.01644 17.89992,-12.52965 22.73915,-19.81141 l 2.56742,-3.86328 0.1371,-24.52545 c 0.0754,-13.48899 0.2824,-24.67074 0.45998,-24.84831 0.17757,-0.17757 0.32286,-1.01263 0.32286,-1.85567 l 0,-1.53281 z m 109.7641,-36.85286 c -0.14398,0.58577 -0.50085,1.3596 -0.79303,1.71963 -0.78353,0.96546 -3.62428,2.28164 -5.60338,2.59617 -1.46606,0.23299 -1.82527,0.0704 -2.34006,-1.05949 -0.34061,-0.74756 -1.48292,-1.68474 -2.59664,-2.13037 -3.11584,-1.24671 -3.4744,-3.52227 -0.55501,-3.52227 0.84766,0 1.643,-0.34879 1.8145,-0.79573 0.45756,-1.19236 3.59769,-2.92764 5.30192,-2.92991 2.0624,-0.003 3.40306,0.81346 4.35275,2.64994 0.83627,1.61716 0.84898,1.72255 0.41895,3.47203 z m -3.133,-2.61904 c -0.17778,-0.46328 -0.69994,-0.84233 -1.16036,-0.84233 -1.07581,0 -4.37411,1.18728 -4.37411,1.57454 0,0.16255 0.73977,0.623 1.64394,1.02322 1.35303,0.59892 1.8713,0.60599 2.92884,0.04 1.45128,-0.7767 1.3938,-0.66939 0.96169,-1.79543 z m -3.04391,-186.63671 c -1.15875,1.72541 -1.41956,1.83149 -5.61622,2.28471 -4.38474,0.47352 -4.40685,0.46969 -5.9738,-1.03154 -0.86502,-0.82875 -1.57277,-1.7016 -1.57277,-1.93969 0,-0.7696 2.06274,-0.45866 2.5331,0.38187 0.39864,0.71229 0.94584,0.73072 4.35257,0.14655 3.22976,-0.55382 3.99415,-0.88228 4.46661,-1.91925 0.4166,-0.91434 0.39885,-1.52513 -0.0659,-2.26938 -0.34979,-0.5601 -0.63597,-2.20564 -0.63597,-3.65675 0,-1.45111 -0.23964,-2.7865 -0.53252,-2.96751 -0.29289,-0.181 -0.53252,-1.1079 -0.53252,-2.05972 0,-4.44568 -3.36535,-4.38673 -6.91954,0.12114 -1.23764,1.56971 -2.91798,3.23729 -3.73409,3.70564 -1.95252,1.12057 -2.76651,3.70094 -1.76842,5.60587 0.67845,1.29487 0.65525,1.41362 -0.27617,1.41362 -2.21477,0 -3.368,-3.6404 -1.99458,-6.29633 0.46962,-0.90811 2.72981,-3.5912 5.02264,-5.96234 l 4.16879,-4.31116 2.8299,0.16402 c 2.33656,0.13542 3.01238,0.40929 3.87669,1.57082 1.16741,1.56895 2.07664,4.95332 2.19722,8.17851 0.0438,1.17154 0.37451,2.65349 0.73493,3.29325 0.97819,1.73628 0.79753,3.52644 -0.5599,5.54767 z m -13.03782,120.10704 c -0.21518,0.33613 -1.52122,1.21138 -2.90233,1.94501 -2.05114,1.08954 -2.86497,1.25405 -4.44312,0.89811 -1.06262,-0.23966 -3.73787,-0.29916 -5.945,-0.13224 -3.70429,0.28016 -4.08133,0.21285 -4.9019,-0.875 -0.76707,-1.01693 -1.63365,-1.43072 -3.36647,-1.6075 -0.21966,-0.0224 -0.39939,-0.50162 -0.39939,-1.06492 0,-1.43091 2.29642,-4.00589 4.50881,-5.05574 1.68363,-0.79893 2.00718,-0.80512 3.43691,-0.0658 0.86807,0.4489 3.08981,1.05792 4.93719,1.35338 6.25576,1.00052 8.18871,1.39278 8.83667,1.79324 0.71849,0.44405 0.83973,1.87248 0.23863,2.81146 z m -7.379,-1.66903 c -1.06086,-0.44325 -2.55857,-0.81118 -3.32823,-0.81762 -0.76967,-0.006 -2.37063,-0.45285 -3.55771,-0.99203 -2.14814,-0.97573 -2.16547,-0.97464 -3.67859,0.23188 -1.29836,1.03527 -1.41085,1.31704 -0.77054,1.93016 1.52549,1.46073 3.53273,2.00509 5.37459,1.45754 0.97095,-0.28864 3.14326,-0.37267 4.82735,-0.18674 3.57531,0.39473 4.11442,-0.37753 1.13313,-1.62319 z m 1.98193,73.44881 c -0.33356,0.85214 -1.00454,1.05656 -3.82332,1.16479 -1.88032,0.0722 -5.4551,0.75051 -7.94396,1.50735 -4.2393,1.28913 -4.5675,1.31823 -5.19455,0.46069 -0.36814,-0.50345 -0.53865,-1.32713 -0.37892,-1.8304 0.15973,-0.50326 0.0621,-1.05615 -0.21703,-1.22864 -0.83724,-0.51744 0.0988,-2.8044 1.64348,-4.0155 1.50294,-1.17834 3.98253,-1.42981 10.6787,-1.08299 2.32188,0.12027 3.39409,0.45806 4.39327,1.38407 1.37551,1.27477 1.52148,1.90569 0.84233,3.64063 z m -10.91814,-2.17965 c -3.01109,0.25084 -5.44737,1.69612 -4.59347,2.72499 0.48556,0.58508 1.02642,0.53664 3.09761,-0.2774 1.38014,-0.54244 3.22485,-1.13583 4.09937,-1.31865 2.43018,-0.50805 0.41785,-1.38064 -2.60351,-1.12894 z m 9.60074,95.07057 c -0.9198,2.5425 -3.17499,4.32512 -5.4717,4.32512 -1.42448,0 -1.95067,-0.25503 -2.15742,-1.04565 -0.15039,-0.57511 -0.96667,-1.3525 -1.81396,-1.72755 -2.28182,-1.01003 -1.88194,-1.48606 1.2552,-1.49421 4.14417,-0.0108 4.96561,-0.36967 5.60352,-2.44816 0.50227,-1.63653 0.43749,-1.92064 -0.58923,-2.5844 -0.63444,-0.41016 -1.83831,-0.91424 -2.67526,-1.12018 -1.04918,-0.25816 -1.75419,-0.93081 -2.27035,-2.16614 -0.83281,-1.99319 -1.07557,-2.10775 -2.28995,-1.08062 -0.46239,0.39109 -1.5596,0.96535 -2.43826,1.27615 -4.16227,1.47225 -5.00496,1.89674 -5.30196,2.67071 -0.38503,1.00336 1.6502,3.32983 2.91298,3.32983 0.4877,0 1.15969,0.59909 1.49331,1.3313 0.73132,1.60507 0.59711,1.61695 -3.08105,0.27253 -3.32582,-1.21563 -4.00839,-2.1141 -3.80128,-5.00358 0.23299,-3.2505 2.63368,-5.05283 8.24563,-6.19046 3.71368,-0.75283 5.10974,-0.2436 6.24739,2.27879 0.51881,1.15032 1.36683,1.85393 2.83499,2.35225 3.95331,1.34183 4.74388,3.02596 3.2974,7.02427 z m -5.25903,-66.63647 c -1.09137,1.01469 -1.45235,1.06315 -4.05,0.54368 -2.40096,-0.48013 -3.0875,-0.43109 -4.34231,0.31014 -2.21348,1.30753 -3.291,1.08747 -4.96832,-1.0147 -0.83166,-1.04231 -2.06158,-2.10401 -2.73314,-2.35934 -0.87358,-0.33214 -1.28228,-0.98885 -1.43627,-2.30787 -0.27001,-2.31286 0.30076,-2.69282 5.31575,-3.53871 3.27052,-0.55164 4.04049,-0.53199 5.04905,0.12884 0.65452,0.42886 1.96479,0.94991 2.91171,1.15789 1.10848,0.24346 2.38594,1.18878 3.58669,2.65414 2.19708,2.68125 2.23963,2.96365 0.66684,4.42593 z m -6.31301,-5.69363 c -2.5071,-0.95167 -3.9931,-0.76625 -5.1638,0.64435 -1.34328,1.61856 -0.2313,2.36015 4.02124,2.68177 2.23855,0.1693 4.27676,0.18009 4.52936,0.024 0.90215,-0.55756 -1.00818,-2.44719 -3.3868,-3.3501 z M 402.6945,90.199362 c -4.23106,8.089053 -9.67848,15.233228 -12.97198,23.697048 -0.66883,1.75731 -1.6942,4.27346 -2.2786,5.59144 -0.5844,1.31798 -1.8311,5.63137 -2.77042,9.58532 -0.93933,3.95395 -2.50469,10.06459 -3.47858,13.57921 -2.29402,8.27884 -2.83291,17.27756 -3.81138,21.39694 -1.266,4.16638 -1.82797,5.04645 -2.46163,7.5982 -1.00288,4.32846 -0.97605,3.5175 -1.76376,6.80891 -1.49514,6.43787 -1.33496,7.35353 -2.50177,10.64738 -0.39891,1.10423 -1.00906,3.08605 -1.35589,4.40403 -0.34683,1.31798 -1.09469,4.07376 -1.66191,6.12395 -0.56723,2.0502 -1.03543,4.46131 -1.04044,5.35802 -0.005,0.89672 -0.49798,3.49677 -1.09546,5.77789 -0.59749,2.28112 -1.32706,5.86084 -1.62128,7.95493 -1.63224,14.96652 -5.14285,32.54679 -4.56758,56.22974 0.0638,2.46102 -0.49681,13.31279 -0.49681,13.31279 0,0 0.91098,0.64898 2.68384,2.24294 3.43835,3.09137 4.16464,6.09415 4.60191,9.81463 0.10491,3.79395 -1.34401,7.05365 -2.35494,8.60824 -2.13584,3.25254 -0.78543,1.31516 -1.74541,2.36321 -1.36003,1.4848 -2.76487,2.11717 -4.78499,2.53655 -2.02012,0.41938 -2.79002,0.39775 -3.47705,0.36066 -0.68703,-0.0371 -2.78774,-0.42269 -5.66032,-0.60888 -6.60619,-0.42817 -10.98243,-1.69972 -11.85186,-3.44362 -0.93673,-1.87889 -0.44143,-2.13971 1.88114,-0.9906 1.28787,0.63719 3.77012,1.1431 6.58246,1.34157 2.76006,0.23293 4.71978,0.35263 7.40403,0.59716 0.56174,-0.31246 1.27226,-1.03136 1.57893,-1.59755 0.30667,-0.5662 1.22131,-2.12878 2.03253,-3.4724 1.83044,-3.03174 1.95329,-6.28576 0.35085,-9.29298 -0.61825,-1.16024 -1.45519,-2.72978 -1.85986,-3.48785 -1.5004,-2.81073 -2.55506,-3.31948 -6.26418,-3.02175 -4.05485,0.32548 -5.86626,1.30478 -8.19326,4.42951 -2.35403,3.16103 -3.45515,7.49716 -2.73829,10.78323 1.26281,5.78878 1.29309,5.41248 -0.39951,4.9647 -1.32134,-0.34958 -1.60069,-0.78106 -2.13459,-3.29713 -0.86822,-4.09155 -0.83962,-5.95791 0.13533,-8.82956 1.08693,-3.20146 6.06771,-9.4707 8.40572,-10.58016 1.64712,-0.78161 1.82204,-1.09952 2.13707,-3.88391 0.1887,-1.66795 -0.0672,-7.11174 -0.35045,-8.60526 -0.28325,-1.49353 -0.42466,-3.17084 -0.31425,-3.72735 1.67239,-8.42993 3.23619,-26.59122 4.30563,-50.00351 0.62575,-13.69929 0.92347,-52.08851 0.46666,-60.17453 -0.0827,-1.46442 -0.28061,-5.84539 -0.43972,-9.73554 -0.15912,-3.8901 -0.41728,-7.28 -0.57369,-7.53305 -0.24918,-0.40317 -0.58756,-4.171 -1.62944,-18.14385 -0.14195,-1.90375 -0.34384,-5.37843 -0.44863,-7.72151 -0.1048,-2.34308 -0.4585,-5.21867 -0.78602,-6.39021 -0.32752,-1.17154 -0.60121,-3.1794 -0.6082,-4.46186 -0.007,-1.28247 -0.59467,-4.15806 -1.30596,-6.39022 -2.57027,-8.065887 -3.50198,-12.099497 -3.45905,-14.975041 0.0389,-2.602308 0.10336,-2.765578 0.57858,-1.464424 0.29417,0.805433 0.75452,1.464424 1.02299,1.464424 0.26848,0 0.48921,0.539175 0.49051,1.198165 10e-4,0.658991 0.97973,3.953946 2.1743,7.322122 4.23243,11.933624 4.55361,13.536924 5.06704,25.294604 0.16627,3.8075 0.39835,7.01922 0.51573,7.13717 0.11738,0.1179 0.7444,-0.48118 1.39337,-1.33129 6.93335,-5.49069 9.29555,-6.08231 23.08242,-17.44593 9.64044,-7.94599 20.75327,-14.646489 24.39705,-17.074197 6.88376,-4.586371 2.39626,0.921227 -0.0818,2.542426 -5.63529,3.715925 -11.58877,6.932721 -16.27056,11.262701 -1.13041,1.05327 -3.40693,2.90638 -5.05892,4.11801 -10.04218,7.20725 -17.59126,14.80652 -25.89529,21.26515 -1.39086,1.09406 -1.44847,1.3118 -1.09186,4.12701 0.20707,1.63462 0.43823,4.1702 0.51371,5.63463 0.0755,1.46442 0.30699,4.10039 0.51449,5.85769 0.70578,5.97741 1.36187,27.64445 1.30625,43.13396 -0.0153,4.24683 -0.006,8.34739 -0.0408,11.53234 -0.0111,1.02928 -0.0187,5.36292 -0.0203,6.04075 -0.0297,11.4132 -1.97766,36.20614 -1.71241,35.88925 0.18537,-0.22146 3.856,-5.53873 5.22472,-7.49497 1.77767,-3.05952 2.72433,-3.59928 3.34727,-6.17993 0.29946,-1.31798 2.28377,-10.44358 2.55442,-12.64022 2.39236,-11.7134 3.03007,-16.43463 5.31258,-24.30822 1.05856,-3.41758 1.92482,-6.77245 1.92503,-7.45524 2.1e-4,-0.6828 0.61469,-3.48262 1.36551,-6.22178 0.75082,-2.73922 1.2229,-5.12256 1.04908,-5.29637 -3.42296,6.68063 -19.03114,19.96258 -19.08576,25.85746 -0.53416,4.54176 -0.53887,-5.52825 -0.67848,-5.52825 -3.24299,0 10.49138,-16.36371 20.1182,-23.72231 2.01367,-1.53919 2.41062,-2.84279 3.62099,-11.89107 0.31342,-2.34308 1.16725,-6.53666 1.89739,-9.31906 1.80717,-6.88679 5.64902,-21.97579 5.76238,-22.63202 0.0506,-0.29288 0.23679,-0.77215 0.41377,-1.06503 0.17699,-0.29289 0.48625,-1.29956 0.68724,-2.237 1.04262,-4.86301 13.88256,-31.231592 15.77852,-32.403345 1.19588,-2.221628 2.55622,-6.096971 4.7688,-6.884125 1.05636,0.652867 0.38722,2.782459 -2.25513,7.177062 z m -44.11502,202.925968 1.38533,7.2924 c 0.56945,2.99763 1.06997,4.91774 -2.70075,10.16412 -0.98011,1.36367 -2.00372,-0.24231 -1.83819,-0.0768 0.72654,0.72654 4.57601,1.56361 6.7689,-2.771 2.1929,-4.33462 0.64951,-7.54899 0.0658,-9.03957 -2.744,-4.31534 -2.58655,-4.35735 -3.68113,-5.56915 z m -9.06486,-42.99071 c -0.47192,4.41537 0.14096,-2.23434 -1.68899,14.85689 -0.50087,4.67807 -1.21493,8.0944 -0.53424,7.67371 0.28706,-0.17741 0.66417,-1.03375 0.83801,-1.90297 0.39249,-1.96243 1.32688,-3.1751 5.5693,-7.22794 l 3.35148,-3.20172 c 1.32651,-8.0658 1.45586,-16.49713 1.115,-22.58032 0.0451,-0.51255 0.26289,-2.02854 0.26289,-2.02854 -2.51324,4.66309 -8.2725,9.80593 -8.91345,14.41089 z m 7.2973,21.78648 c 0.041,-3.58784 -0.0419,-6.52334 -0.18406,-6.52334 -0.14219,0 -0.93185,0.47944 -1.7548,1.06543 -3.01795,2.14897 -6.00528,8.47114 -7.10103,15.39018 l -0.76183,4.89981 5.4441,-0.53498 c 1.7442,-0.0165 4.53207,0.9843 4.53207,0.9843 0,0 -0.0291,0.14858 0.26485,-2.83896 -0.18437,-1.68409 -0.48027,-8.85462 -0.4393,-12.44246 z m 41.29317,-5.818 c -1.23756,1.18567 -1.80461,1.37619 -3.24087,1.08894 -0.95747,-0.19149 -1.85741,-0.65191 -1.99988,-1.02317 -0.14245,-0.37125 -0.81212,-0.81382 -1.48815,-0.98349 -1.32691,-0.33303 -2.17761,-2.37452 -1.33895,-3.21318 0.28329,-0.28329 0.51508,-1.39634 0.51508,-2.47344 0,-2.30839 0.74562,-3.03269 2.92885,-2.84509 0.87865,0.0755 1.89387,0.15675 2.25605,0.18054 0.63387,0.0416 1.65814,1.96211 3.14724,5.90096 0.38755,1.02509 0.70823,1.87889 0.71264,1.89731 0.004,0.0184 -0.66699,0.6802 -1.49201,1.47062 z m -3.79407,-4.93222 c -1.49671,-1.60223 -1.59153,-1.63013 -2.1287,-0.62641 -0.46417,0.8673 -0.31775,1.24282 0.83951,2.15313 1.45541,1.14482 2.85567,1.45197 2.85567,0.6264 0,-0.26191 -0.70492,-1.23081 -1.56648,-2.15312 z m -0.90668,123.9523 c -0.94518,2.61102 -1.92741,2.95301 -5.27788,1.83762 -1.91025,-0.63592 -3.117,-1.40846 -3.64954,-2.33635 -0.66219,-1.15381 -1.14312,-1.37049 -2.86783,-1.29213 -1.2186,0.0554 -2.46626,-0.24343 -3.02878,-0.72537 -0.5261,-0.45073 -1.76781,-0.79652 -2.75936,-0.76841 -1.06073,0.0301 -1.91619,-0.24436 -2.07826,-0.66668 -0.36761,-0.95801 1.4518,-1.48872 3.67429,-1.07178 1.47244,0.27623 2.05968,0.0772 3.38586,-1.14759 2.55872,-2.36307 3.42789,-3.04069 4.02884,-3.14098 0.30958,-0.0517 1.1893,-0.25646 1.95492,-0.45509 1.17538,-0.30495 1.85916,0.0697 4.39328,2.40685 3.22521,2.97458 3.49218,3.85789 2.22446,7.35991 z m -5.72785,-5.4654 c -1.08048,-0.2161 -2.09062,-0.0477 -2.90162,0.48367 -1.81149,1.18694 -1.526,1.85878 0.75282,1.77163 1.09832,-0.042 2.53397,0.095 3.19035,0.30446 0.65637,0.20946 1.45078,0.22176 1.76537,0.0273 0.89332,-0.5521 -0.90102,-2.20592 -2.80692,-2.5871 z m 4.96725,-27.26516 c -1.04031,1.32254 -2.85417,1.88355 -3.24521,1.00372 -0.0976,-0.21966 -1.41594,-0.97032 -2.92958,-1.66813 -3.41422,-1.57402 -3.77812,-2.66746 -1.57964,-4.74652 2.90083,-2.74324 5.89315,-3.64637 6.53547,-1.9725 0.16859,0.43932 0.61038,0.79877 0.98176,0.79877 0.63876,0 1.34088,2.22798 1.34088,4.2549 0,0.50966 -0.49665,1.55805 -1.10368,2.32976 z m -2.64736,-5.26784 c -0.72814,-0.45002 -3.29917,1.24121 -2.89097,1.90168 0.17306,0.28002 1.01941,0.50913 1.88078,0.50913 1.19524,0 1.56613,-0.24478 1.56613,-1.03361 0,-0.56848 -0.25017,-1.18822 -0.55594,-1.3772 z m 3.21853,-67.34904 c -0.28392,0.43933 -0.51988,1.30081 -0.52437,1.91441 -0.004,0.6136 -0.4961,1.55722 -1.09249,2.09694 -0.93584,0.84693 -1.32386,0.89469 -2.83352,0.34879 -0.96206,-0.34788 -3.20425,-0.63251 -4.98265,-0.63251 -2.45077,0 -3.31133,-0.20294 -3.55516,-0.83835 -0.35917,-0.93597 0.80255,-2.35676 1.92703,-2.35676 1.81077,0 2.76648,-3.28901 1.36341,-4.69208 -0.5049,-0.5049 -0.39553,-0.89434 0.50373,-1.7936 0.91616,-0.91616 1.81555,-1.15748 4.44343,-1.19224 2.43693,-0.0322 3.39342,0.16438 3.67365,0.75519 0.20839,0.43932 0.65576,1.33469 0.99417,1.98971 0.74603,1.44402 0.78131,3.31958 0.0828,4.4005 z m -4.55622,-4.26014 c -0.87067,0 -1.07739,0.3379 -1.54743,2.52946 -0.33241,1.54988 -0.24598,1.73068 0.82735,1.73068 0.65921,0 1.62497,-0.3859 2.14615,-0.85756 0.87047,-0.78777 0.87974,-0.96113 0.11381,-2.13007 -0.45858,-0.69989 -1.15153,-1.27251 -1.53988,-1.27251 z m -9.89201,90.56563 c -0.54714,0.29282 -0.99479,0.40094 -0.99479,0.24026 0,-0.16068 -0.86799,0.0705 -1.92885,0.51378 -2.64908,1.10686 -3.54467,1.01725 -4.96724,-0.497 -0.67322,-0.71662 -1.71709,-1.37561 -2.3197,-1.46442 -0.65815,-0.097 -1.37941,-0.85954 -1.80627,-1.90961 -0.66262,-1.63005 -0.62201,-1.83022 0.60144,-2.96407 3.1181,-2.88976 6.65633,-2.60525 9.95388,0.80038 2.32193,2.39804 2.90583,4.50772 1.46153,5.28068 z m -6.31997,-5.36277 c -1.68576,0 -2.15906,0.36989 -1.77015,1.38336 0.27163,0.70786 2.35431,1.05009 2.92394,0.48046 0.79678,-0.79678 0.13624,-1.86382 -1.15379,-1.86382 z M 335.70297,242.49949 c -0.28392,0.43932 -0.51988,1.81721 -0.52436,3.06197 -0.007,1.90548 -0.1765,2.26321 -1.07319,2.26321 -0.58577,0 -1.12495,-0.0169 -1.19817,-0.0375 -0.0732,-0.0206 -0.85203,0.33785 -1.73068,0.79661 -1.41501,0.73879 -1.66511,0.74307 -2.18878,0.0375 -0.32517,-0.43814 -0.8502,-0.79661 -1.16674,-0.79661 -0.95842,0 -1.12803,-0.75776 -0.64699,-2.89063 0.396,-1.75582 0.29293,-2.19866 -0.75593,-3.24752 -1.79512,-1.79511 -1.97871,-3.18574 -0.5925,-4.48801 2.91454,-2.73807 6.61161,-2.1715 9.02723,1.38342 1.51347,2.22726 1.6213,2.72422 0.85011,3.91756 z m -4.53173,-3.57116 c -2.37064,-1.13047 -3.20828,-0.46779 -2.1026,1.66342 0.43612,0.84061 0.72936,2.14439 0.65166,2.8973 -0.0979,0.9483 0.14506,1.42763 0.79062,1.56002 0.72017,0.14768 0.93191,-0.16594 0.93191,-1.3803 0,-0.86426 0.35945,-1.86971 0.79877,-2.23432 1.20642,-1.00123 0.98161,-1.5276 -1.07036,-2.50612 z m -4.67114,31.82077 c -0.35679,0.45371 -2.26653,1.11871 -4.24386,1.47776 -3.16204,0.57418 -3.80356,0.54465 -5.32518,-0.24513 -0.95151,-0.49388 -1.43049,-0.99912 -1.06438,-1.12275 0.96414,-0.3256 0.81646,-1.08357 -0.26626,-1.36652 -0.77486,-0.20249 -0.74996,-0.25394 0.14777,-0.30531 0.59383,-0.034 1.63378,0.32634 2.31102,0.8007 0.97365,0.68197 1.49995,0.74008 2.51482,0.27767 1.65942,-0.75608 1.61904,-1.42839 -0.18095,-3.01266 -1.67029,-1.47012 -3.71482,-1.68178 -5.2234,-0.54074 -1.33009,1.00603 -3.30135,1.01513 -5.20163,0.024 -2.21918,-1.15746 -1.51769,0.2371 0.74236,1.47581 1.00542,0.55106 2.3073,1.46918 2.89307,2.04026 0.91448,0.89155 0.9529,1.1079 0.27175,1.5305 -1.79721,1.11503 -3.85094,-0.22793 -3.33948,-2.18373 0.20357,-0.77849 -0.022,-1.00425 -0.99718,-0.99794 -0.69315,0.004 -1.58634,0.21475 -1.98487,0.46725 -1.78661,1.13197 -4.75045,-1.86984 -3.28907,-3.33121 0.30377,-0.30377 0.5523,-0.93784 0.5523,-1.40906 0,-1.45384 1.24379,-2.57516 3.25736,-2.93659 1.65969,-0.29791 2.19004,-0.11394 3.83497,1.33033 1.65564,1.45367 2.06354,1.5933 3.07425,1.05239 0.6843,-0.36623 2.4835,-0.52832 4.35871,-0.39268 2.98615,0.216 3.34416,0.39058 5.51692,2.69021 2.44186,2.58444 2.70254,3.32749 1.64096,4.67744 z m -5.82988,75.85764 c -0.32695,0.58577 -1.01871,1.36866 -1.53723,1.73974 -0.58395,0.41792 -1.00491,1.52535 -1.10606,2.90977 -0.15156,2.07428 -0.29738,2.26496 -2.02712,2.65078 -3.13004,0.69814 -5.08367,0.0461 -7.69947,-2.56966 -3.21908,-3.21908 -3.26049,-4.81797 -0.18339,-7.08089 2.58276,-1.89939 3.12505,-1.95072 8.14912,-0.77143 4.43954,1.04209 5.2459,1.61364 4.40415,3.12169 z m -8.00521,0.62826 c -1.10194,-0.259 -2.36966,-0.3304 -2.81718,-0.15868 -0.70741,0.27146 -0.71748,0.49578 -0.0772,1.71784 0.58325,1.11317 1.20447,1.44776 2.98589,1.60822 2.1756,0.19597 2.24387,0.15506 2.0807,-1.24692 -0.13818,-1.18714 -0.53142,-1.5348 -2.17222,-1.92046 z m 1.84963,-191.08473 c -1.78569,0.91423 -4.12442,1.22016 -9.13934,1.19545 -6.11416,-0.0304 -8.46889,-1.00854 -11.87355,-4.93394 -1.44869,-1.6703 -2.65505,-2.57041 -3.44488,-2.57041 -0.66851,0 -1.72458,-0.50909 -2.34683,-1.13134 -0.9471,-0.94713 -1.08215,-1.54685 -0.82923,-3.68236 0.23143,-1.95412 0.1193,-2.62116 -0.47928,-2.85083 -0.55555,-0.21317 -0.67999,-0.72652 -0.43054,-1.77595 0.39814,-1.67509 1.7478,-3.43836 2.34789,-3.06751 0.60173,0.37191 3.69848,-0.82408 5.76497,-2.22641 1.52493,-1.03484 2.51252,-1.24114 5.94211,-1.24114 3.73415,0 4.24261,0.1294 5.51713,1.40393 0.77216,0.77215 1.40391,1.81323 1.40391,2.31347 0,0.5003 0.59879,1.60586 1.33065,2.45688 1.45667,1.69378 1.71995,2.87853 0.63967,2.87853 -0.91087,0 -1.97032,-1.08682 -1.97032,-2.02123 0,-0.40876 -0.47109,-1.40478 -1.04687,-2.21341 -0.96788,-1.35925 -1.25923,-1.45079 -3.86076,-1.21302 -1.54763,0.14143 -3.15275,0.52639 -3.56694,0.85549 -0.41418,0.32904 -2.45106,0.59828 -4.5264,0.59828 -3.46379,0 -3.76215,0.0874 -3.63695,1.06504 0.075,0.58577 0.14737,2.454 0.16079,4.15167 0.0229,2.8896 0.1331,3.15288 1.72742,4.12499 0.93666,0.57112 2.10108,1.03931 2.5876,1.04043 0.4865,0 1.44504,0.66283 2.13007,1.4705 1.57219,1.85374 6.19849,2.8405 10.89816,2.32444 3.09558,-0.33991 5.26058,-1.32933 4.74261,-2.16746 -0.71133,-1.15093 -0.75296,-3.66585 -0.065,-3.92982 1.31222,-0.50355 2.29295,1.40377 2.61851,5.09242 0.26918,3.04978 0.18016,3.65669 -0.59457,4.05331 z m -10.82401,208.16269 c -0.60959,0.95188 -1.30499,1.73068 -1.54532,1.73068 -0.24032,0 -1.22805,0.83872 -2.19495,1.86382 -0.9669,1.02509 -2.23156,1.86381 -2.81036,1.86381 -1.80707,0 -4.96868,-2.61467 -5.86237,-4.8482 -1.26765,-3.16817 -1.06927,-4.58655 0.892,-6.3779 0.95188,-0.8694 1.7353,-1.87433 1.74095,-2.23318 0.007,-0.45644 1.03483,-0.62266 3.42084,-0.5533 4.25961,0.12382 6.73498,1.34026 7.1718,3.52432 0.49101,2.45506 0.37448,3.17636 -0.81259,5.02995 z m -2.20193,-5.01578 c -0.36611,-0.26766 -1.58794,-0.80033 -2.71519,-1.18372 -1.99632,-0.67898 -2.09656,-0.6515 -3.86075,1.05843 -1.04879,1.01653 -1.81122,2.28264 -1.81122,3.00776 0,1.564 2.6066,4.13299 3.39429,3.3453 0.30049,-0.30049 0.8286,-0.54634 1.17358,-0.54634 0.34498,0 1.49522,-0.36267 2.55609,-0.80593 1.67483,-0.69979 1.92884,-1.04184 1.92884,-2.59738 0,-0.98531 -0.29954,-2.01046 -0.66564,-2.27812 z m -2.96791,-22.1884 c -0.78666,0.20571 -1.00418,0.59191 -0.80462,1.42858 0.70318,2.9481 0.57847,3.25709 -1.90168,4.71181 -1.34568,0.7893 -2.82977,2.10728 -3.29797,2.92885 -0.6939,1.21761 -1.17971,1.47332 -2.6279,1.3832 -1.06948,-0.0665 -2.30107,-0.63498 -3.09422,-1.42812 -1.28052,-1.28053 -1.30082,-1.4197 -0.72172,-4.94838 0.39152,-2.38563 0.90678,-3.81341 1.50244,-4.1633 0.49861,-0.29289 1.30159,-0.90652 1.7844,-1.36363 3.1718,-3.00296 6.34188,-3.56148 7.37275,-1.29896 0.33362,0.73221 0.95702,1.33129 1.38534,1.33129 1.26136,0 1.57728,1.11163 0.40318,1.41866 z m -6.48429,1.12126 c -0.58577,0.62874 -1.06503,1.28144 -1.06503,1.45044 0,0.16899 0.47926,0.0507 1.06503,-0.26273 0.58577,-0.3135 1.06504,-0.9662 1.06504,-1.45045 0,-0.73135 -0.18037,-0.68685 -1.06504,0.26274 z m -2.94578,1.95513 c -0.99623,1.31713 -0.99106,1.89517 0.0169,1.89517 0.52049,0 0.79288,-0.5102 0.78185,-1.46443 -0.0163,-1.40268 -0.0499,-1.42084 -0.79878,-0.43074 z m -1.83222,-69.35775 c -1.31179,1.93159 -1.96045,3.41401 -1.78593,4.08142 0.59105,2.26013 -4.53238,3.05597 -7.96611,1.2374 -2.38436,-1.26281 -3.84655,-3.00283 -4.22123,-5.02329 -0.32446,-1.74969 0.28801,-2.63558 2.77573,-4.01488 1.28503,-0.71248 1.80903,-1.3452 1.68739,-2.0375 -0.75004,-4.26873 -0.7418,-4.36408 0.43152,-4.99202 0.63768,-0.34127 1.56006,-0.44444 2.04972,-0.22925 0.48966,0.21519 1.17264,0.3469 1.51773,0.2927 0.34509,-0.0542 1.26128,0.73245 2.03597,1.74813 0.82696,1.08419 1.71391,1.72951 2.1481,1.5629 0.88773,-0.34066 3.45397,2.27977 3.41482,3.48691 -0.0152,0.46978 -0.95471,2.21915 -2.08771,3.88748 z m -2.81248,-4.79563 c -0.76141,-0.0906 -1.67089,-0.50996 -2.02108,-0.9319 -0.84069,-1.01298 -1.57131,-0.97461 -1.57131,0.0825 0,1.32961 -2.0985,3.94296 -3.16617,3.94296 -1.18529,0 -2.72326,1.67037 -1.81859,1.97514 0.33368,0.11241 1.74311,1.01235 3.13207,1.99986 2.53939,1.80544 4.20449,1.95786 3.83744,0.35127 -0.23813,-1.04234 1.33006,-4.38578 2.52046,-5.37372 1.15928,-0.96212 0.76473,-1.84651 -0.91282,-2.04614 z m -3.99178,147.31195 c -4.75515,-2.17585 -5.45831,-2.66624 -5.45831,-3.80669 0,-2.20664 -0.93712,-2.52244 -4.04008,-1.36147 -1.557,0.58254 -3.74118,1.14182 -4.85373,1.24283 -1.11254,0.10101 -2.1644,0.20796 -2.33745,0.23768 -0.17306,0.0297 -1.30322,1.02307 -2.51148,2.20746 -1.8781,1.841 -2.15078,2.38371 -1.87939,3.74061 0.17459,0.87295 0.95059,2.03802 1.72446,2.58907 1.91982,1.36703 7.29607,2.8689 9.02366,2.52079 5.36107,-1.08027 6.64877,-1.51944 7.48572,-2.55303 0.69139,-0.85382 1.16155,-1.02301 1.81959,-0.65475 0.79258,0.44355 0.80329,0.61652 0.10024,1.62026 -0.97987,1.39896 -4.84739,2.3709 -10.19436,2.56193 -2.20504,0.0788 -4.23489,0.36897 -4.51079,0.64488 -0.83086,0.83085 -3.54824,0.15494 -3.83843,-0.95477 -0.14459,-0.55288 -0.87059,-1.2363 -1.61333,-1.51868 -2.21909,-0.8437 -2.63674,-2.25851 -1.65927,-5.62089 1.32717,-4.56531 4.22213,-6.3672 12.89857,-8.02839 4.82457,-0.92371 4.95006,-0.92196 5.70957,0.0794 0.42712,0.56311 0.69017,1.2735 0.58456,1.57866 -0.21716,0.62742 1.13263,2.66927 1.70936,2.58578 0.84926,-0.12295 2.24028,1.17524 2.24028,2.09078 0,0.53973 -0.17973,0.89908 -0.39939,0.79857 z m -5.94807,-75.62081 c -1.48322,1.73349 -1.59517,1.76718 -5.98139,1.79956 -2.45843,0.0182 -5.23992,-0.13613 -6.18109,-0.34285 -2.02385,-0.44451 -3.79276,-2.68832 -4.22651,-5.3612 -0.16795,-1.03499 -0.51271,-2.00995 -0.76612,-2.16656 -0.93598,-0.57847 -0.44801,-2.86828 0.78316,-3.67498 0.68415,-0.44826 3.23401,-1.06457 5.66637,-1.36956 8.07244,-1.0122 12.28244,1.37985 12.23674,6.95271 -0.0151,1.84479 -0.36754,2.80292 -1.53116,4.16288 z m -3.35552,-7.44197 c -1.0722,-0.6804 -3.73738,-0.55298 -3.29816,0.15769 0.26946,0.436 -0.19214,0.49989 -1.6439,0.22754 -1.40276,-0.26316 -2.14566,-0.17304 -2.43517,0.2954 -0.3298,0.53362 -0.71031,0.54027 -1.82595,0.0319 -2.79197,-1.27211 -2.96389,0.90433 -0.18495,2.34138 1.62568,0.84067 7.84142,1.63409 9.07955,1.15897 0.94767,-0.36365 1.18871,-3.65442 0.30858,-4.21294 z m 1.32524,124.93724 c -0.48649,1.9263 -1.8879,3.53731 -4.0259,4.62804 -1.98247,1.01138 -2.50817,1.04536 -7.93702,0.51295 -5.2028,-0.51024 -6.05937,-0.74643 -8.14883,-2.24697 -1.28419,-0.92224 -2.46106,-2.00559 -2.61527,-2.40744 -0.15421,-0.40186 -0.90273,-0.73064 -1.66339,-0.73064 -2.58295,0 -3.44307,-0.87599 -3.44307,-3.50655 0,-3.43106 1.17065,-5.39315 3.59805,-6.0306 2.99373,-0.78618 9.75748,-0.82381 11.57871,-0.0644 0.87865,0.36636 2.3135,0.65412 3.18856,0.63946 0.87504,-0.0146 2.0133,0.35552 2.52946,0.82263 0.52975,0.47942 0.93845,0.59254 0.93845,0.25974 0,-0.32707 1.16204,0.0133 2.60997,0.76454 2.14006,1.1103 2.65277,1.657 2.8477,3.03648 0.13076,0.92531 0.36559,2.04183 0.52184,2.48116 0.15626,0.43933 0.16559,1.26805 0.0207,1.84162 z m -2.26535,-4.63203 c -0.0127,-0.68696 -7.0282,-3.60799 -8.47346,-3.52807 -0.76196,0.0421 -2.08013,-0.11154 -2.92924,-0.34149 -0.9199,-0.24911 -1.42098,-0.21927 -1.23982,0.0738 0.16722,0.27057 -0.11213,1.04367 -0.62079,1.718 -0.82783,1.09748 -1.38193,1.23032 -5.28353,1.26661 -2.39729,0.0223 -4.35828,0.18276 -4.35775,0.3566 5.2e-4,0.17383 1.07871,0.99695 2.39596,1.82915 1.31725,0.8322 2.83138,2.06785 3.36473,2.7459 0.80695,1.02587 1.82855,1.34517 6.08591,1.90217 4.60064,0.60191 5.36161,0.57563 7.55182,-0.26083 2.73764,-1.04551 4.20888,-2.71466 3.79261,-4.30277 -0.15354,-0.58577 -0.28244,-1.24238 -0.28644,-1.45912 z M 258.03689,151.77473 c -0.55315,0.66197 -1.92361,1.2994 -3.29004,1.5303 -1.28809,0.21758 -2.7646,0.65957 -3.28115,0.98217 -0.733,0.45775 -1.0882,0.39124 -1.61803,-0.30295 -0.95564,-1.25211 -3.60771,-1.84677 -3.60771,-0.80895 0,0.49423 -0.73015,0.90534 -1.96327,1.10546 -1.90839,0.30971 -3.36191,-0.27712 -3.36191,-1.35728 0,-0.28325 -0.49301,-0.91428 -1.09559,-1.40223 -0.7177,-0.58114 -1.14964,-1.64601 -1.2523,-3.08733 -0.13506,-1.89619 -1.77771,-5.15764 -3.05145,-6.05867 -0.57053,-0.40354 -1.52339,-3.0853 -1.52339,-4.28746 0,-0.56862 0.59908,-1.55479 1.33129,-2.19141 0.73222,-0.63668 1.3313,-1.44387 1.3313,-1.79374 0,-1.53583 6.3976,-1.7195 8.40872,-0.24139 0.79357,0.58327 2.63972,1.28215 4.10255,1.55314 1.70994,0.31675 2.94597,0.89682 3.46137,1.6244 0.44092,0.62246 1.61594,2.14013 2.61116,3.37265 3.6116,4.47277 4.73717,9.04316 2.79845,11.36329 z m -4.71641,-7.93478 c -0.79188,-1.23891 -1.49265,-2.57318 -1.55729,-2.96496 -0.35704,-2.1642 -5.88849,-4.57177 -11.79581,-5.13416 -2.61756,-0.24917 -2.63525,-0.24022 -3.55307,1.79512 -0.67815,1.50388 -0.77876,2.31112 -0.37992,3.0485 0.29838,0.55158 0.69807,1.36234 0.88819,1.80167 1.56637,3.61942 3.87357,7.17972 4.61652,7.12397 0.47638,-0.0357 1.17037,0.50339 1.54219,1.19817 0.50369,0.94111 1.1283,1.26318 2.44988,1.26318 0.9756,0 1.77383,-0.27233 1.77383,-0.60515 0,-0.33283 0.63573,0.0309 1.41273,0.80761 1.22582,1.22581 1.52527,1.31538 2.26321,0.67667 0.46775,-0.40487 1.50945,-0.89266 2.31488,-1.08399 1.35595,-0.32217 1.46443,-0.54519 1.46443,-3.01096 0,-1.98363 -0.36733,-3.23776 -1.43977,-4.91567 z m 3.74734,53.57302 c -0.19525,0.19526 -0.97606,0.35501 -1.73512,0.35501 -0.75906,0 -2.87623,0.97757 -4.70481,2.17236 -3.30156,2.15724 -3.34972,2.16969 -6.91829,1.78838 -6.4327,-0.68735 -11.88425,-3.14104 -13.66088,-6.14863 -0.91321,-1.54594 -1.1717,-5.79988 -0.35243,-5.79988 0.27329,0 0.47615,-0.73003 0.45077,-1.62231 -0.0667,-2.34553 0.79893,-3.01608 2.8797,-2.23067 1.1268,0.42532 1.89346,0.45994 2.3214,0.10475 0.35143,-0.29166 1.02879,-0.3807 1.50524,-0.19788 0.56885,0.21833 0.86627,0.0511 0.86627,-0.48742 0,-1.35797 2.16886,-1.70725 3.14571,-0.50653 0.4665,0.57342 1.62699,1.34945 2.57886,1.72461 0.95188,0.37516 1.73069,0.97531 1.73069,1.33369 0,0.93596 1.59156,2.24361 3.9093,3.21204 l 2.00651,0.83837 -0.63976,-1.19542 c -0.35187,-0.65744 -1.14375,-1.60687 -1.75974,-2.10978 -1.05153,-0.85853 -1.06109,-0.93734 -0.15631,-1.28939 0.66871,-0.26018 1.23918,-0.009 1.86381,0.82242 1.33571,1.77686 2.33465,2.79835 4.04905,4.14044 1.91879,1.50208 1.36251,2.25857 -0.74525,1.01349 -1.55983,-0.92142 -3.78133,-0.79913 -5.16113,0.2841 -1.1105,0.87183 -3.94277,-1.06521 -4.81895,-3.29576 -0.68242,-1.73729 -1.08138,-2.07229 -2.73522,-2.29696 -2.00227,-0.27201 -9.09594,0.58497 -9.77778,1.18118 -0.77677,0.67922 0.88875,4.42994 2.489,5.60515 1.90701,1.4005 7.96991,3.49217 10.12236,3.49217 0.82481,0 3.62361,-0.28278 6.21954,-0.62841 3.97901,-0.52977 4.71989,-0.78054 4.71989,-1.59755 0,-1.10393 1.07447,-1.27922 2.02357,-0.33013 0.72393,0.72393 0.79734,1.15523 0.284,1.66856 z M 237.99519,426.9397 c -0.55109,0.21148 -0.69804,0.76034 -0.48661,1.81749 0.19373,0.96864 0.0335,1.7381 -0.44454,2.13484 -0.87672,0.72762 -7.16235,2.76454 -8.56173,2.77452 -0.52983,0.004 -0.81692,0.24376 -0.63799,0.53329 0.18656,0.30186 -0.0272,0.39113 -0.50109,0.20928 -0.45454,-0.17442 -0.82643,-0.64542 -0.82643,-1.04666 0,-0.40124 -0.62259,-1.13746 -1.38354,-1.63605 -1.09997,-0.72073 -1.58679,-0.77958 -2.37527,-0.28717 -0.54547,0.34065 -1.39998,0.4627 -1.89893,0.27124 -0.61421,-0.23569 -0.78284,-0.14692 -0.52215,0.27489 0.76007,1.22982 -1.61879,0.61959 -2.77688,-0.71233 -1.01279,-1.16481 -1.66322,-4.52235 -0.87608,-4.52235 0.34149,0 3.06443,1.70576 3.44263,2.15661 0.46392,0.55303 2.28632,1.10456 6.04421,1.82921 3.37937,0.65167 3.83992,0.62363 6.25708,-0.38089 1.43507,-0.59639 2.60072,-1.23211 2.59034,-1.41273 -0.075,-1.30558 -1.91999,-3.16848 -4.54081,-4.58494 -1.69883,-0.91815 -3.25717,-2.01347 -3.46297,-2.43403 -0.20582,-0.42057 -0.66938,-1.48357 -1.03015,-2.36223 -1.84586,-4.49558 -2.29865,-4.66453 -6.69326,-2.49745 -4.05859,2.00138 -4.45595,1.11655 -0.47588,-1.05968 3.88169,-2.12243 5.94121,-2.37299 7.49635,-0.91201 0.69869,0.65638 1.27034,1.61054 1.27034,2.12034 0,1.13064 5.07589,5.27765 6.45978,5.27765 0.54751,0 0.99547,0.19525 0.99547,0.43389 0,0.23864 0.83872,0.83385 1.86382,1.32268 1.93871,0.92451 2.43571,2.17017 1.07429,2.69259 z"
       id="path3353"
       inkscape:connector-curvature="0"
       sodipodi:nodetypes="ssssscccccccsssscccsccccscccsssccsssscssscssssssssssssccccsssssscssccsscssccscsssssccssssssssssssssssssssssscsssscscsssscsssscscczsssssssssccsssssssscssssssssscccsssssssssssssssssssssssccssssssccsscsssssscsssssscssssssssssssssssscssssssssssssscssssssssscsssssccssssssssssssscsssssssssscsscscscscsccccsssccssssssssssscscscsssscssccsssssssscssscsccscsscsscscscscccssssscsscssssccssssscssssccsscscsssssssssssssssssssssssssssssssssscsscccscsssccccsscscccsccszzsssccssssssscssssssscscssssscsscssccssccccscssscsccccssccsssscsscccssssczccssssccccssssccssccsscssscscssscssscsssccsscssscssccccsscscsssscssscssssssssccsccsssccssscssssssscsscsscscssssscssccscsscccscssssssssccssssssssscccsssscccscccccscscscccsssscsscccsccsccsccsccscsssscssscsscsssscsscscsssssssscscscscccsccsssssssccsccscsssscccscccsssssssscccssccssccscccccscscccscssccccscssssccsscsccccsccsscsssssccscccssscscscscscssccccccccsscccscccccssssccssssscccccsssssssssssccccccssssssssssscscsssssssscccc" />
    <path
       style="fill:none;fill-rule:evenodd;stroke:#000000;stroke-width:2.58417606;stroke-linecap:butt;stroke-linejoin:miter;stroke-miterlimit:4;stroke-dasharray:none;stroke-opacity:1"
       d="m 127.14285,306.64792 c 117.00315,0 140.71429,0 140.71429,0"
       id="path3430"
       inkscape:connector-curvature="0"
       sodipodi:nodetypes="cc" />
  </g>
  <g
     inkscape:groupmode="layer"
     id="layer3"
     inkscape:label="torus"
     style="display:inline"
     transform="translate(17.758242,-83.000065)">
    <g
       id="g4623"
       transform="matrix(0.99728009,0.07370496,-0.07370496,0.99728009,25.407825,-19.662884)">
      <path
         inkscape:connector-curvature="0"
         id="path4621"
         d="m 351.43963,381.75731 c 0.0514,1.05715 0.0641,2.11332 0.0909,3.17334 0.0179,0.71097 -1.0217,1.5021 -1.0134,2.21417 1.20763,0.0978 -0.40136,-1.21476 6.8095,-1.07431 7.75613,0.15107 15.9473,0.45933 18.22851,0.68511 3.02383,0.29931 6.74059,0.37588 13.75586,0.28519 5.28652,-0.0683 10.05859,-0.17699 10.60547,-0.243 0.54688,-0.066 3.82742,-0.20301 7.29102,-0.30375 6.0176,-0.17502 17.6008,-0.85034 20.05273,-1.16942 1.87222,-0.24364 3.2704,-0.38718 6.96094,-0.7138 3.46528,-0.30669 9.605,-1.12356 12.75976,-1.69761 1.98209,-0.36066 6.70543,-1.04751 8.78321,-1.27742 6.82513,-0.75518 10.26041,-1.18789 13.92187,-1.75161 1.3672,-0.2105 3.38084,-0.46382 4.47461,-0.56361 1.09376,-0.0998 3.2552,-0.41932 4.80469,-0.70874 1.5495,-0.28943 3.71288,-0.67492 4.80664,-0.85724 1.09376,-0.18234 3.0439,-0.64661 4.33398,-1.03105 1.29012,-0.38446 2.70676,-0.68392 3.14844,-0.66656 3.98588,0.15621 9.01805,-0.84543 15.2207,-3.02734 9.2728,-3.26191 12.46577,-4.61307 15.57813,-6.59805 1.36721,-0.87195 3.47549,-2.15229 4.68554,-2.84508 1.21011,-0.6928 2.47896,-1.50828 2.81836,-1.81067 0.33943,-0.30238 1.73632,-1.42493 3.10352,-2.49578 1.36722,-1.07083 3.06103,-2.73504 3.76562,-3.69726 0.70456,-0.96222 1.49042,-1.94229 1.7461,-2.17854 0.81451,-0.75257 4.04731,-4.96929 4.7207,-6.15762 1.93086,-3.40729 3.90788,-8.63597 5.74024,-15.17719 2.44307,-8.72124 3.5443,-13.08301 3.90429,-15.46237 0.21447,-1.4175 0.54721,-3.4732 0.73828,-4.56801 0.36725,-2.10445 0.13998,-8.22799 -0.43554,-11.75498 -0.44192,-2.70834 -1.89123,-8.86353 -2.46094,-10.45225 -0.25418,-0.70875 -0.77624,-2.25614 -1.16211,-3.4374 -0.38588,-1.18124 -1.05026,-2.85632 -1.47656,-3.72258 -0.42628,-0.86624 -1.31845,-3.1848 -1.98047,-5.15356 -0.66203,-1.96875 -1.41956,-3.98565 -1.68359,-4.48194 -0.26402,-0.49632 -0.47852,-0.98923 -0.47852,-1.09517 0,-0.23738 -2.94041,-5.26209 -4.10938,-7.0233 -0.47041,-0.70874 -0.95732,-1.4816 -1.08398,-1.71785 -0.35129,-0.65541 -2.66303,-3.32383 -4.69531,-5.42187 -2.49631,-2.57707 -4.83524,-4.41564 -9.46485,-7.43504 -5.89444,-3.84427 -11.21154,-5.76158 -17.60351,-6.34998 -1.64064,-0.15104 -3.87693,-0.39319 -4.9707,-0.53831 -1.09376,-0.1451 -4.52406,-0.59446 -7.62305,-0.99899 -3.09901,-0.40453 -6.67902,-1.0493 -7.95508,-1.43266 -2.3547,-0.70742 -4.82583,-1.32185 -8.12109,-2.01992 -1.89359,-0.40113 -3.10497,-0.70194 -8.11914,-2.01316 -1.64066,-0.42903 -3.5065,-0.88146 -4.14453,-1.00573 -0.63804,-0.12429 -1.53255,-0.31302 -1.98829,-0.4185 -0.45573,-0.1055 -2.91664,-0.44034 -5.46875,-0.74418 -8.1536,-0.97079 -14.66852,-1.9741 -16.73828,-2.57848 -0.74739,-0.21824 -3.31985,-0.59416 -9.61133,-1.40059 -1.18492,-0.15189 -3.42315,-0.3531 -4.97265,-0.44719 -1.5495,-0.094 -4.15818,-0.3526 -5.79883,-0.57544 -1.64065,-0.22284 -6.41465,-0.67198 -10.60742,-0.99899 -8.29816,-0.6472 -10.63772,-0.89715 -14.41797,-1.53391 -9.86736,-1.66204 -13.03697,-2.05053 -20.05078,-2.45866 -3.3357,-0.19409 -17.41784,-0.577 -23.13851,-1.01593 -0.50941,1.71409 0.0165,1.98002 -0.24681,3.742 0.37153,0.0258 7.99265,-0.60779 8.32193,-0.57949 2.91671,0.2508 8.43548,0.64286 12.26367,0.87242 8.69411,0.52135 13.69934,1.06978 20.88086,2.28654 8.06914,1.36714 9.25307,1.51593 16.07618,2.01485 3.37244,0.24659 8.51688,0.75825 11.43359,1.13737 2.91671,0.37912 6.57159,0.76871 8.12109,0.86567 4.5371,0.2839 9.39646,0.96891 15.2461,2.14816 5.05991,1.02006 7.84172,1.42469 15.74414,2.28992 1.6426,0.17984 5.58924,1.01265 8.7832,1.85453 3.19015,0.84088 7.29229,1.85709 9.11523,2.25784 4.43114,0.97416 8.8674,2.13675 9.15235,2.39792 0.1271,0.11652 -0.46659,2.77595 -1.49908,3.47279 -3.11471,2.1022 -9.339,8.91032 -12.04687,13.17584 -0.55653,0.87667 -1.33754,1.98108 -1.73633,2.4536 -1.13978,1.35037 -3.00985,4.66021 -4.0039,7.08741 -0.49994,1.22062 -0.98132,2.21904 -1.07032,2.21904 -0.089,0 -0.64973,-0.36919 -1.24414,-0.82012 -2.72228,-2.06511 -9.71039,-4.74046 -11.37695,-4.35539 -1.01694,0.23499 -1.03946,0.36567 -0.31055,1.74823 0.43181,0.819 0.90206,1.13854 2.46485,1.6723 1.06221,0.36277 2.30403,0.78887 2.75976,0.94667 0.45574,0.1578 1.6086,0.62407 2.5625,1.03611 1.08993,0.4708 2.17302,0.72308 2.91406,0.68006 0.64853,-0.0378 1.31431,0.004 1.48047,0.0928 0.16615,0.0888 -0.002,0.77016 -0.375,1.51368 -1.14139,2.2775 -2.27344,5.11318 -2.27344,5.69524 0,0.30382 -0.12573,0.67556 -0.27929,0.82517 -0.15353,0.14964 -0.83845,2.07614 -1.52149,4.28114 -0.68307,2.20502 -1.44927,4.65294 -1.70312,5.44043 -0.64691,2.00704 -2.00337,7.7661 -2.63086,11.16774 -3.00033,16.26543 -3.52735,20.81623 -3.09375,26.77524 0.12034,1.65375 0.31065,4.4251 0.42187,6.15761 0.11121,1.7325 0.27107,3.53696 0.35547,4.00946 0.0843,0.47251 0.22119,1.63178 0.30469,2.57678 0.19687,2.22764 0.44329,4.26093 0.90234,7.44516 0.39396,2.73266 0.62111,3.21087 3.94532,8.30409 3.79971,5.82177 4.24892,6.65356 4.08203,7.56834 -0.11977,0.65678 0.0491,1.06213 0.68945,1.65879 0.46618,0.43436 0.84766,0.6833 0.84766,0.5518 0,-0.25682 2.09248,0.72739 4.86133,2.28654 0.94236,0.53066 1.87528,0.96524 2.07226,0.96524 0.19697,0 0.35742,0.1245 0.35742,0.27674 0,0.15226 0.51307,0.71835 1.13867,1.25887 l 1.13672,0.98379 -1.40532,2.34219 c -0.85346,0.19117 -3.1023,0.39262 -4.99805,0.44887 -1.89577,0.0562 -4.13204,0.29747 -4.9707,0.53493 -2.06761,0.58542 -7.08266,1.22786 -11.30274,1.44786 -5.27356,0.27492 -5.56422,0.30655 -6.10156,0.69187 -0.27451,0.19677 -0.65138,0.27677 -0.83789,0.17718 -0.18652,-0.0996 -0.63616,-0.0434 -1,0.12488 -1.66645,0.77055 -8.60008,1.71071 -13.61719,1.84609 -2.81893,0.0761 -6.31898,0.26829 -7.77734,0.42863 -4.94207,0.54333 -10.91001,0.86487 -19.20508,1.03442 -4.54748,0.093 -8.37549,0.22736 -8.50586,0.29699 -0.13037,0.0697 -3.86587,0.17469 -8.30273,0.23457 -6.30868,0.0851 -9.33118,-0.007 -13.86719,-0.42863 -3.96728,-0.36816 -9.3098,-0.58153 -16.9043,-0.6733 -7.51932,-0.0909 -5.57832,-0.49048 -8.3376,-0.67926 z M 498.44445,246.72736 c 0.93136,-0.0593 2.15672,-0.0323 4.24918,0.046 5.64646,0.21129 8.6195,0.81202 13.35546,2.70196 6.06061,2.41856 14.02961,8.02155 18.23114,12.81652 4.70464,5.3691 6.99719,9.38081 9.80705,17.16943 0.43326,1.20097 1.10171,2.83979 1.48697,3.64023 0.38524,0.80045 1.00844,2.11028 1.38424,2.91075 0.71711,1.52759 2.97414,9.53125 3.5311,12.52109 0.17902,0.96112 0.48723,2.50207 0.68379,3.42558 0.49895,2.34429 0.15482,12.41616 -0.49985,14.63796 -0.28351,0.96208 -0.6212,2.40557 -0.7492,3.20708 -0.12805,0.80153 -0.59502,2.57263 -1.03912,3.93569 -1.14167,3.504 -1.60411,5.17203 -1.60547,5.80147 -6.4e-4,0.29997 -0.3701,1.51118 -0.82172,2.69216 -0.45165,1.18098 -1.33341,3.65584 -1.96063,5.50003 -1.82127,5.35479 -3.28806,8.2563 -6.00487,11.88521 -3.54679,4.73754 -10.76689,10.95427 -14.67681,12.63653 -0.55712,0.23971 -1.41643,0.76861 -1.91041,1.17494 -1.16478,0.95813 -5.54587,3.36765 -7.22906,3.97613 -0.72163,0.26088 -1.54718,0.57995 -1.83375,0.70952 -1.76026,0.79589 -4.81041,2.00459 -5.50135,2.18001 -0.44671,0.11342 -1.54081,0.48024 -2.43108,0.8155 -0.89026,0.33524 -1.93066,0.64016 -2.31423,0.67788 -0.38354,0.0377 -1.63445,0.41797 -2.77878,0.8454 -2.21672,0.82807 -6.17054,1.32745 -6.53928,0.82583 -0.11988,-0.16311 -1.59558,-0.29197 -3.308,-0.28838 -2.63304,0.006 -3.34229,-0.10172 -4.77529,-0.72657 -1.90925,-0.83247 -3.96991,-1.43404 -4.2139,-1.22907 -0.0902,0.0758 -0.55301,-0.11799 -1.02969,-0.43223 -0.47664,-0.31426 -1.12801,-0.57111 -1.44655,-0.57044 -0.31852,6.7e-4 -1.10809,-0.45664 -1.75436,-1.01617 -0.64889,-0.56179 -1.51858,-1.01669 -1.94454,-1.01579 -1.08283,0.002 -2.86793,-0.90389 -3.12935,-1.58848 -0.12064,-0.31593 -1.40872,-1.6902 -2.86238,-3.05359 -3.4443,-3.23036 -4.23728,-4.13022 -5.64643,-6.40609 -0.64411,-1.04026 -1.57105,-2.47938 -2.06048,-3.19948 -1.19011,-1.75088 -1.54444,-3.13594 -2.1616,-8.45998 -1.32566,-11.43538 -1.47816,-20.18528 -0.47333,-27.05624 0.81859,-5.59786 3.38887,-19.57964 3.83621,-20.86541 0.16739,-0.4811 0.65507,-2.18645 1.08377,-3.78985 0.42872,-1.60339 0.99581,-3.47729 1.25841,-4.1645 0.26262,-0.68721 0.47346,-1.40988 0.46969,-1.6046 -0.009,-0.39207 2.64616,-7.42744 3.32353,-8.80971 0.23582,-0.48124 1.01506,-2.12309 1.73171,-3.64697 1.49005,-3.1684 1.76841,-3.70376 4.02257,-7.71577 1.45152,-2.58349 4.16229,-6.46281 6.02442,-8.62136 2.72804,-3.16235 3.79209,-4.26959 6.38004,-6.63904 3.12225,-2.85865 5.50001,-4.21904 9.35872,-5.35756 0.91509,-0.27 1.55217,-0.41629 2.48351,-0.47565 z"
         style="fill:#000000"
         sodipodi:nodetypes="cccssscsssssssscscsscccccssscsccsscsscssscssssccssscsssscccssssssssscssccsccccsscccscscsssccssccssssccccssccccsccscsccccssscccscccscssscscsscccscccssscsscssccccsssssscc" />
      <path
         inkscape:connector-curvature="0"
         id="path4536"
         d="m 326.16797,224.53488 c -9.02071,0.0593 -17.88069,0.1863 -21.51367,0.3606 -3.00785,0.14431 -7.25779,0.34023 -9.44532,0.4344 -3.89786,0.16779 -8.96492,0.46438 -16.90429,0.99122 -4.94595,0.3282 -11.42359,1.00554 -14.91407,1.55981 -3.80509,0.60424 -14.26078,2.05182 -16.40624,2.27094 -4.12331,0.42111 -8.97786,1.04615 -12.09766,1.55981 -1.82294,0.30013 -5.25321,0.81731 -7.62305,1.14889 -4.33074,0.60596 -7.81488,1.18677 -10.27539,1.71076 -0.72918,0.15528 -3.16302,0.53939 -5.4082,0.85537 -4.17872,0.5881 -8.32704,1.46353 -10.26367,2.16528 -0.59864,0.21692 -1.37142,0.39415 -1.7168,0.39415 -0.34539,0 -0.82552,0.15988 -1.06641,0.35556 -0.24089,0.19568 -0.73502,0.40133 -1.09961,0.4562 -0.36459,0.0548 -0.75865,0.23151 -0.875,0.39247 -0.22154,0.30649 -2.44109,1.45686 -4.85156,2.51414 -0.77974,0.342 -1.94906,1.15025 -2.59765,1.79629 -1.0184,1.0144 -3.88436,4.75467 -5.88086,7.67491 -0.33836,0.4949 -1.41906,1.75766 -2.40235,2.80598 -0.98327,1.0483 -1.78906,2.00096 -1.78906,2.11664 0,0.11566 -0.27923,0.4735 -0.62109,0.79667 -0.34188,0.32317 -1.10871,1.35686 -1.70313,2.2961 -0.59442,0.93925 -2.27054,3.15675 -3.72656,4.92765 -2.49333,3.03246 -4.09909,5.43519 -5.83789,8.7349 -0.41245,0.78271 -1.18111,2.06353 -1.70899,2.84623 -2.15388,3.19361 -4.63086,8.00301 -4.63086,8.9932 0,0.16111 -0.37239,0.99271 -0.82812,1.84829 -0.45574,0.8556 -0.83008,1.67633 -0.83008,1.8248 0,0.14847 -0.52213,1.22815 -1.16016,2.39842 -0.63803,1.17024 -1.16015,2.3982 -1.16015,2.72881 0,0.33062 -0.15992,0.86052 -0.35742,1.1774 -0.19748,0.31687 -0.35557,1.17247 -0.35157,1.90196 0.004,0.7295 -0.21384,2.15912 -0.48437,3.17664 -0.27053,1.01752 -0.57471,2.29834 -0.67578,2.84622 -0.10109,0.5479 -0.27928,1.12485 -0.39453,1.28139 -0.19449,0.26424 -0.62068,3.02797 -0.87891,5.69245 -0.0607,0.62617 -0.21771,1.97126 -0.34961,2.98879 -0.13191,1.01752 -0.27872,2.16975 -0.32422,2.5611 -0.0456,0.39136 -0.34223,2.37601 -0.66015,4.41106 -0.55804,3.57366 -0.56231,10.62497 -0.008,13.09231 0.42758,1.90263 1.29007,4.72794 2.39063,7.82754 0.63919,1.80023 1.31798,3.7849 1.50781,4.41106 0.18983,0.62617 0.61207,1.65149 0.9375,2.27765 0.32543,0.62618 0.68208,1.89652 0.79297,2.82274 0.18818,1.57176 1.22114,3.69078 2.50195,5.13059 1.12523,1.26494 5.74901,4.83817 7.95508,6.14698 0.63802,0.37853 1.62406,1.05062 2.19141,1.49439 1.04118,0.81437 3.87518,2.3665 6.92383,3.79385 1.67301,0.78328 6.31121,2.03016 8.45117,2.27094 0.63803,0.0718 2.50194,0.31207 4.14257,0.53503 8.59745,1.16839 14.72038,1.11891 22.66602,-0.18281 3.71058,-0.60791 3.81741,-0.60809 6.29883,-0.10734 1.38803,0.28009 3.41795,0.68232 4.51172,0.89395 2.90498,0.56207 10.62297,1.73842 12.92578,1.97072 1.09377,0.11033 3.7044,0.58178 5.80078,1.04658 2.09639,0.46478 5.22632,1.15732 6.95508,1.53968 2.8557,0.63163 8.00759,1.41658 16.57812,2.52588 1.7318,0.22415 5.08721,0.65851 7.45703,0.96607 4.71154,0.61146 7.62135,0.9386 14.41797,1.6185 4.10579,0.41073 9.0853,1.18097 14.58399,2.25586 4.0137,0.7846 8.25898,1.28149 15.82422,1.85331 7.43972,0.56233 12.62768,1.07623 13.0332,1.29146 0.0413,0.0219 3.81049,0.3922 4.19086,0.43853 -0.009,-0.0653 0.27406,-1.29074 0.25446,-1.35449 0.83205,0.58493 0.12393,-0.97726 0.29694,-1.89943 3.73654,-2.03619 -11.01306,-1.15337 -13.23552,-1.30517 -2.09639,-0.16247 -5.52666,-0.43113 -7.62304,-0.59708 -3.47071,-0.27474 -6.33214,-0.69812 -15.57813,-2.30114 -3.00985,-0.52182 -7.55159,-1.14251 -11.10351,-1.51787 -0.91147,-0.0963 -1.88086,-0.22596 -2.1543,-0.28848 -0.27344,-0.0625 -1.69008,-0.19465 -3.14844,-0.29351 -1.45836,-0.0989 -3.24738,-0.29031 -3.97656,-0.42434 -1.20381,-0.22125 -7.15362,-0.97919 -16.9043,-2.15353 -7.1737,-0.86398 -10.0132,-1.34892 -14.91406,-2.54769 -6.27477,-1.53482 -7.5239,-1.76399 -11.60156,-2.13341 -5.20764,-0.47178 -11.78586,-1.71983 -11.75586,-2.23069 0.006,-0.10208 0.78022,-2.67393 1.5147,-3.88813 0.73448,-1.2142 2.08031,-2.37102 2.85156,-3.27391 0.77125,-0.90289 0.77777,-0.71629 1.78711,-2.13341 1.00934,-1.41712 2.39104,-3.36505 3.93945,-6.56461 1.54841,-3.19956 3.77859,-10.04437 4.82813,-12.7904 1.04145,-2.59219 1.79899,-4.5864 2.4375,-6.97384 0.34703,-1.30351 0.71779,-3.08299 1.02929,-4.55363 0.8209,-2.85916 0.90994,-5.96578 1.33399,-8.47158 0.29189,-1.67847 0.92665,-3.99765 1.35547,-5.83501 0.42882,-1.83736 0.85994,-3.49354 1.2168,-5.18929 0.35686,-1.69575 0.48731,-2.55966 0.92968,-4.98132 0.44237,-2.42166 1.4381,-6.98117 1.70703,-9.55171 0.26893,-2.57054 0.30456,-2.7109 0.1836,-5.80147 -0.12096,-3.09057 -0.90228,-10.00797 -1.39844,-12.67636 -0.49616,-2.66839 -0.93459,-3.41136 -0.90039,-3.41479 0.38675,-0.0371 8.6737,-4.57525 9.80078,-5.36708 0.7059,-0.49593 1.55087,-1.03633 1.87891,-1.20256 0.35853,-0.18171 0.49599,-0.44259 0.34375,-0.65411 -0.70159,-0.97483 -9.37095,1.37016 -11.6875,3.16154 -0.90169,0.69728 -1.32375,0.48458 -1.75391,-0.88724 -0.18579,-0.59248 -1.10565,-2.15664 -2.04492,-3.47518 -0.93928,-1.31856 -2.17021,-3.0783 -2.73633,-3.91125 -1.68508,-2.47936 -2.9299,-3.79934 -4.73047,-5.01821 -6.15269,-4.16499 -8.2757,-5.5211 -9.82617,-6.27613 -0.96439,-0.46962 -2.84105,-1.5366 -4.17188,-2.37158 -2.49771,-1.56709 -6.76648,-3.5195 -8.45117,-3.86596 -1.55834,-0.32048 -0.73982,-2.6861 2.47369,-3.00088 1.6382,-0.16047 4.55367,-0.59815 6.47851,-0.97279 1.92487,-0.37465 5.1325,-0.83177 7.12696,-1.01639 1.99448,-0.18463 4.63416,-0.52495 5.86718,-0.75475 1.23303,-0.2298 3.24666,-0.52873 4.47461,-0.66585 4.59091,-0.5126 8.00779,-0.86362 12.83985,-1.31661 2.73441,-0.25634 7.05921,-0.7803 9.61132,-1.16565 6.87301,-1.03779 10.38252,-1.46568 15.90821,-1.93718 16.99117,-1.44983 45.87539,-2.12765 64.34366,-1.66698 -0.0219,-1.75882 1.10902,-1.47154 1.09182,-3.23046 -4.27833,-0.0979 -8.40412,-0.22669 -17.42483,-0.16742 z m -121.81435,17.24043 c 2.16808,-0.1118 3.72588,-0.0403 4.84081,0.22205 2.58639,0.60856 6.94088,2.20922 8.39681,3.08705 0.73046,0.44043 1.58936,0.93234 1.90859,1.09148 0.31924,0.15913 1.04514,0.61341 1.61393,1.01148 0.5688,0.39808 2.06947,1.23382 3.33302,1.85542 1.26357,0.6216 3.53328,2.01335 5.04362,3.09405 1.51036,1.08071 3.18647,2.18538 3.72603,2.45472 0.53956,0.26932 1.26155,0.89621 1.60342,1.39252 0.34186,0.49631 1.80435,2.42143 3.24964,4.27835 1.95533,2.5122 2.76259,3.84763 3.15373,5.21646 0.28912,1.01176 1.16044,1.69819 1.38908,2.49532 0.22863,0.79712 2.29533,2.35663 2.4263,3.80732 0.4455,4.78953 0.75615,9.66492 1.08687,14.41508 0.24078,3.45522 0.40344,7.95279 -0.0676,11.12584 -0.47107,3.17305 -1.42547,5.74002 -1.94654,7.831 -0.52107,2.09098 -0.70839,2.63551 -1.17804,4.71536 -0.46965,2.07985 -1.22824,5.92345 -1.57098,7.77593 -0.34274,1.85248 -0.33113,2.16842 -0.55877,3.32387 -0.22764,1.15545 -0.13784,0.96672 -0.81547,3.60436 -2.98938,7.84957 -3.24596,17.18881 -7.67308,24.0076 -1.11228,1.72816 -2.08436,4.416 -4.02488,6.8969 -1.94052,2.4809 -4.45621,5.75088 -7.82299,7.60834 -3.36678,1.85746 -6.52977,3.41993 -11.81905,2.85238 l 0,-0.002 c -0.75372,0.028 -2.91257,0.1545 -4.79693,0.28023 -1.88437,0.1258 -3.5034,0.16405 -3.59758,0.0858 -0.0941,-0.0782 -2.45407,-0.29329 -5.24429,-0.47792 -4.41909,-0.29241 -6.22811,-0.57019 -11.36791,-1.74601 -1.83408,-0.41959 -6.76961,-2.28494 -8.02339,-3.03276 -0.67197,-0.40079 -2.14654,-1.31939 -3.2763,-2.04002 -1.12975,-0.72061 -2.55549,-1.50199 -3.1676,-1.73769 -0.61214,-0.23571 -1.11374,-0.59157 -1.11352,-0.7899 2.1e-4,-0.19832 -0.91389,-1.01049 -2.03298,-1.80554 -1.11908,-0.79504 -2.04251,-1.62033 -2.05313,-1.83457 -0.0103,-0.21427 -0.29353,-0.4516 -0.62929,-0.5256 -0.68987,-0.152 -0.91183,-0.5353 -2.64164,-4.59166 -0.67976,-1.59401 -1.39798,-3.22382 -1.59697,-3.62229 -0.50691,-1.01511 -1.66045,-4.26714 -2.00457,-5.65169 -1.42951,-5.75165 -1.70209,-7.41336 -1.88119,-11.45089 -0.16203,-3.65303 -0.0652,-5.33581 0.52052,-8.98964 0.3963,-2.47226 0.96352,-6.51826 1.25939,-8.99044 0.29587,-2.47214 0.97935,-6.12529 1.51888,-8.11928 0.53952,-1.99401 1.08542,-4.38656 1.21301,-5.31683 0.24463,-1.78368 0.93175,-3.64725 2.31832,-6.28511 1.56796,-2.98288 1.74641,-3.33574 1.84306,-3.62596 0.7596,-2.28089 2.44352,-5.7593 3.68245,-7.60562 0.85702,-1.27717 2.39533,-3.80905 3.41786,-5.62674 1.02252,-1.81771 2.61526,-4.19385 3.53861,-5.28002 2.17375,-2.55707 5.15507,-6.4919 5.75978,-7.601 0.26101,-0.47871 1.42969,-1.813 2.59534,-2.96383 0.83606,-0.82544 2.22409,-2.46909 3.52173,-4.14474 0.51154,-0.66055 1.00903,-1.32608 1.45312,-1.94842 2.49267,-3.49318 3.00333,-4.03876 4.01599,-4.29294 0.63808,-0.16017 1.87621,-0.65186 2.75279,-1.09135 0.8766,-0.43949 1.70694,-0.79976 1.84403,-0.7999 0.13709,-1.5e-4 0.72544,-0.30746 1.30891,-0.68314 2.09323,-1.34778 3.29904,-1.68715 6.56913,-1.85576 z"
         style="fill:#000000"
         sodipodi:nodetypes="cssssssssssssccssssscssssssssscsscccccccsscssssscsssssssssssscccccssccccsssczzzzcccczzzzzzcsccscsssssssssscsssccccccccssscsscccczzzzzcczzccccsssssssccsssscsssssssscssscssscc" />
    </g>
  </g>
  <g
     inkscape:groupmode="layer"
     id="layer4"
     inkscape:label="text"
     transform="translate(17.758242,-83.000065)">
    <text
       xml:space="preserve"
       style="font-style:normal;font-weight:normal;font-size:40px;line-height:125%;font-family:sans-serif;letter-spacing:0px;word-spacing:0px;fill:#000000;fill-opacity:1;stroke:none;stroke-width:1px;stroke-linecap:butt;stroke-linejoin:miter;stroke-opacity:1"
       x="580"
       y="305.93365"
       id="text3359"
       sodipodi:linespacing="125%"><tspan
         sodipodi:role="line"
         id="tspan3361"
         x="580"
         y="305.93365"
         style="font-style:normal;font-variant:normal;font-weight:normal;font-stretch:normal;font-size:22.5px;font-family:'palatino linotype';-inkscape-font-specification:'palatino linotype'">Central black hole</tspan></text>
    <text
       xml:space="preserve"
       style="font-style:normal;font-weight:normal;font-size:40px;line-height:125%;font-family:sans-serif;letter-spacing:0px;word-spacing:0px;fill:#000000;fill-opacity:1;stroke:none;stroke-width:1px;stroke-linecap:butt;stroke-linejoin:miter;stroke-opacity:1"
       x="-18.142763"
       y="311.59659"
       id="text3359-8"
       sodipodi:linespacing="125%"><tspan
         sodipodi:role="line"
         id="tspan3361-1"
         x="-18.142763"
         y="311.59659"
         style="font-style:normal;font-variant:normal;font-weight:normal;font-stretch:normal;font-size:22.5px;font-family:'palatino linotype';-inkscape-font-specification:'palatino linotype'">Accretion disc</tspan></text>
    <text
       xml:space="preserve"
       style="font-style:normal;font-weight:normal;font-size:40px;line-height:125%;font-family:sans-serif;letter-spacing:0px;word-spacing:0px;fill:#000000;fill-opacity:1;stroke:none;stroke-width:1px;stroke-linecap:butt;stroke-linejoin:miter;stroke-opacity:1"
       x="564.12164"
       y="365.2009"
       id="text3359-8-5"
       sodipodi:linespacing="125%"><tspan
         sodipodi:role="line"
         id="tspan3361-1-5"
         x="564.12164"
         y="365.2009"
         style="font-style:normal;font-variant:normal;font-weight:normal;font-stretch:normal;font-size:22.5px;font-family:'palatino linotype';-inkscape-font-specification:'palatino linotype'">Broad-line region</tspan></text>
    <text
       xml:space="preserve"
       style="font-style:normal;font-weight:normal;font-size:40px;line-height:125%;font-family:sans-serif;letter-spacing:0px;word-spacing:0px;fill:#000000;fill-opacity:1;stroke:none;stroke-width:1px;stroke-linecap:butt;stroke-linejoin:miter;stroke-opacity:1"
       x="19.836016"
       y="170.91522"
       id="text3359-8-7"
       sodipodi:linespacing="125%"><tspan
         sodipodi:role="line"
         id="tspan3361-1-8"
         x="19.836016"
         y="170.91522"
         style="font-style:normal;font-variant:normal;font-weight:normal;font-stretch:normal;font-size:22.5px;font-family:'palatino linotype';-inkscape-font-specification:'palatino linotype'">Narrow-line region</tspan></text>
    <text
       xml:space="preserve"
       style="font-style:normal;font-weight:normal;font-size:40px;line-height:125%;font-family:sans-serif;letter-spacing:0px;word-spacing:0px;fill:#000000;fill-opacity:1;stroke:none;stroke-width:1px;stroke-linecap:butt;stroke-linejoin:miter;stroke-opacity:1"
       x="111.2646"
       y="405.91525"
       id="text3359-8-9"
       sodipodi:linespacing="125%"><tspan
         sodipodi:role="line"
         id="tspan3361-1-2"
         x="111.2646"
         y="405.91525"
         style="font-style:normal;font-variant:normal;font-weight:normal;font-stretch:normal;font-size:22.5px;font-family:'palatino linotype';-inkscape-font-specification:'palatino linotype'">Jet</tspan></text>
    <path
       style="fill:none;fill-rule:evenodd;stroke:#000000;stroke-width:3.27289844;stroke-linecap:butt;stroke-linejoin:miter;stroke-miterlimit:4;stroke-dasharray:none;stroke-opacity:1"
       d="m 347.14286,301.64792 c 187.68018,0 225.71429,0 225.71429,0"
       id="path3430-1"
       inkscape:connector-curvature="0"
       sodipodi:nodetypes="cc" />
    <path
       style="fill:none;fill-rule:evenodd;stroke:#000000;stroke-width:2.65534306;stroke-linecap:butt;stroke-linejoin:miter;stroke-miterlimit:4;stroke-dasharray:none;stroke-opacity:1"
       d="m 407.5,360.21935 c 123.53633,0 148.57143,0 148.57143,0"
       id="path3430-1-6"
       inkscape:connector-curvature="0"
       sodipodi:nodetypes="cc" />
    <path
       style="fill:none;fill-rule:evenodd;stroke:#000000;stroke-width:1.95716846;stroke-linecap:butt;stroke-linejoin:miter;stroke-miterlimit:4;stroke-dasharray:none;stroke-opacity:1"
       d="m 216.78571,166.64792 c 67.11348,0 80.71429,0 80.71429,0"
       id="path3430-1-6-4"
       inkscape:connector-curvature="0"
       sodipodi:nodetypes="cc" />
    <path
       style="fill:none;fill-rule:evenodd;stroke:#000000;stroke-width:3.04207778;stroke-linecap:butt;stroke-linejoin:miter;stroke-miterlimit:4;stroke-dasharray:none;stroke-opacity:1"
       d="m 141.78571,400.21934 c 162.14142,0 195,0 195,0"
       id="path3430-1-6-7"
       inkscape:connector-curvature="0"
       sodipodi:nodetypes="cc" />
    <text
       xml:space="preserve"
       style="font-style:normal;font-weight:normal;font-size:40px;line-height:125%;font-family:sans-serif;letter-spacing:0px;word-spacing:0px;fill:#000000;fill-opacity:1;stroke:none;stroke-width:1px;stroke-linecap:butt;stroke-linejoin:miter;stroke-opacity:1"
       x="586.5329"
       y="262.31085"
       id="text3359-4"
       sodipodi:linespacing="125%"><tspan
         sodipodi:role="line"
         id="tspan3361-7"
         x="586.5329"
         y="262.31085"
         style="font-style:normal;font-variant:normal;font-weight:normal;font-stretch:normal;font-size:22.5px;font-family:'palatino linotype';-inkscape-font-specification:'palatino linotype'">Dusty torus</tspan></text>
    <path
       style="fill:none;fill-rule:evenodd;stroke:#000000;stroke-width:2.82842708;stroke-linecap:butt;stroke-linejoin:miter;stroke-miterlimit:4;stroke-dasharray:none;stroke-opacity:1"
       d="m 414.39008,255.88225 c 140.16621,0 168.57143,0 168.57143,0"
       id="path3430-1-2"
       inkscape:connector-curvature="0"
       sodipodi:nodetypes="cc" />
  </g>
  <g
     inkscape:groupmode="layer"
     id="layer2"
     inkscape:label="Layer 2"
     style="display:none"
     transform="translate(17.758242,-83.000065)">
    <g
       id="g4347">
      <ellipse
         transform="matrix(0.97615228,0.21708691,-0.21708691,0.97615228,0,0)"
         ry="76.785713"
         rx="57.5"
         cy="230.70694"
         cx="215.58174"
         id="path4283"
         style="fill:#ffffff;fill-opacity:1;fill-rule:nonzero;stroke:#000000;stroke-width:2;stroke-miterlimit:4;stroke-dasharray:none;stroke-opacity:1" />
      <ellipse
         inkscape:transform-center-y="-53.571429"
         inkscape:transform-center-x="432.85714"
         transform="matrix(0.97615228,0.21708691,-0.21708691,0.97615228,0,0)"
         ry="76.785713"
         rx="57.5"
         cy="207.75244"
         cx="593.54065"
         id="path4283-4"
         style="fill:#ffffff;fill-opacity:1;fill-rule:nonzero;stroke:#000000;stroke-width:2;stroke-miterlimit:4;stroke-dasharray:none;stroke-opacity:1" />
      <path
         sodipodi:nodetypes="cccc"
         inkscape:connector-curvature="0"
         id="path4300"
         d="m 216.42857,247.3622 c 10.10548,-3.14887 29.85018,-3.87231 54.41795,-2.82979 m 166.75409,22.17104 c 24.59539,5.46855 44.38152,11.38415 54.54225,17.08733"
         style="fill:none;fill-rule:evenodd;stroke:#000000;stroke-width:1px;stroke-linecap:butt;stroke-linejoin:miter;stroke-opacity:1" />
      <path
         sodipodi:nodetypes="cc"
         inkscape:connector-curvature="0"
         id="path4300-4"
         d="m 158.52344,196.53402 c 40.42192,-12.59548 287.21424,22.90154 385.71429,58.57143"
         style="fill:none;fill-rule:evenodd;stroke:#000000;stroke-width:1px;stroke-linecap:butt;stroke-linejoin:miter;stroke-opacity:1" />
      <path
         sodipodi:nodetypes="cc"
         inkscape:connector-curvature="0"
         id="path4300-4-5"
         d="M 531.43933,407.47346 C 491.01741,420.06894 244.22508,384.57192 145.72503,348.90203"
         style="fill:none;fill-rule:evenodd;stroke:#000000;stroke-width:1px;stroke-linecap:butt;stroke-linejoin:miter;stroke-opacity:1" />
      <path
         sodipodi:nodetypes="cccc"
         inkscape:connector-curvature="0"
         id="path4300-8"
         d="m 478.61943,353.90469 c -10.10548,3.14887 -29.85018,3.87231 -54.41795,2.82979 M 257.44739,334.56344 C 232.852,329.09489 213.06587,323.17929 202.90514,317.47611"
         style="fill:none;fill-rule:evenodd;stroke:#000000;stroke-width:1px;stroke-linecap:butt;stroke-linejoin:miter;stroke-opacity:1" />
    </g>
  </g>
</svg>
