<?xml version="1.0" encoding="UTF-8" standalone="no"?>
<!-- Generator: Adobe Illustrator 10.0, SVG Export Plug-In . SVG Version: 3.0.0 Build 76)  -->

<svg
   xmlns:dc="http://purl.org/dc/elements/1.1/"
   xmlns:cc="http://creativecommons.org/ns#"
   xmlns:rdf="http://www.w3.org/1999/02/22-rdf-syntax-ns#"
   xmlns:svg="http://www.w3.org/2000/svg"
   xmlns="http://www.w3.org/2000/svg"
   xmlns:sodipodi="http://sodipodi.sourceforge.net/DTD/sodipodi-0.dtd"
   xmlns:inkscape="http://www.inkscape.org/namespaces/inkscape"
   width="335.333"
   height="248.667"
   viewBox="0 0 335.333 248.667"
   overflow="visible"
   enable-background="new 0 0 335.333 248.667"
   xml:space="preserve"
   id="svg2"
   version="1.1"
   inkscape:version="0.91 r13725"
   sodipodi:docname="Faraday-effect.svg"><metadata
   id="metadata175"><rdf:RDF><cc:Work
       rdf:about=""><dc:format>image/svg+xml</dc:format><dc:type
         rdf:resource="http://purl.org/dc/dcmitype/StillImage" /><dc:title /></cc:Work></rdf:RDF></metadata><defs
   id="defs173">
			
			
		
				
				
				
				
			</defs><sodipodi:namedview
   pagecolor="#ffffff"
   bordercolor="#666666"
   borderopacity="1"
   objecttolerance="10"
   gridtolerance="10"
   guidetolerance="10"
   inkscape:pageopacity="0"
   inkscape:pageshadow="2"
   inkscape:window-width="1920"
   inkscape:window-height="1027"
   id="namedview171"
   showgrid="false"
   showguides="false"
   inkscape:zoom="1.7654093"
   inkscape:cx="184.65125"
   inkscape:cy="28.508211"
   inkscape:window-x="-8"
   inkscape:window-y="-8"
   inkscape:window-maximized="1"
   inkscape:current-layer="Layer_1" />
	<g
   id="Layer_1">
		<g
   id="g4932"
   transform="matrix(0.87719707,0.4801305,-0.4801305,0.87719707,337.82231,-203.18561)"><path
     inkscape:connector-curvature="0"
     id="path4922"
     d="m 108.40263,224.09763 c -0.39843,-0.69139 -0.0476,-1.14079 0.24781,-1.80553 0.0489,-0.11012 0.13767,-0.20057 0.17702,-0.31862 0.0564,-0.1691 0.10704,-0.39359 0.14161,-0.56644 0.0625,-0.31243 -0.0895,-1.04141 0,-1.3099 0.0786,-0.23573 0.20484,-0.47291 0.28322,-0.70805 0.0336,-0.10091 0.0621,-0.46484 0.1062,-0.53103 0.25834,-0.38751 1.19264,-0.63172 1.62852,-0.84967 0.0599,-0.0299 0.15748,-0.26003 0.17702,-0.31862 0.1034,-0.31022 -0.0708,-1.50118 -0.0708,-1.87633 0,-0.41316 0.0697,-0.74049 0.21242,-1.13289 0.0801,-0.22024 0.20027,-0.39955 0.24781,-0.63724 0.0385,-0.19247 0,-0.44078 0,-0.63725 0,-0.55464 0,-1.10928 0,-1.66392 0,-0.148 -0.0464,-0.3918 0,-0.53104 0.10897,-0.32689 0.71794,-0.60513 1.02668,-0.70805 0.0885,-0.0295 0.23534,0.0416 0.31862,0 0.29017,-0.14508 0.61161,-0.2527 0.88506,-0.38943 0.10034,-0.0502 1.55039,0.009 1.62852,0.0354 0.15705,0.0523 0.31329,0.17434 0.46024,0.24781 0.0649,0.0324 0.10102,0.16176 0.17701,0.21242 0.42661,0.28441 0.83518,0.61081 1.30989,0.81426 0.23691,0.10153 0.47117,0.16886 0.70805,0.24782 0.0751,0.025 0.13562,0.087 0.21242,0.1062 0.22086,0.0552 0.46998,0.11109 0.67265,0.21242 0.0808,0.0404 0.11526,0.13584 0.17701,0.17701 0.17342,0.11561 0.38974,0.16542 0.56644,0.28322 0.0854,0.0569 0.13226,0.17234 0.21242,0.21242 0.0499,0.025 0.13483,0.0286 0.17701,0.0708 0.11503,0.11504 0.12391,0.37175 0.17701,0.53104 0.0132,0.0395 0.007,0.98132 0,0.99127 -0.0784,0.11759 -0.1929,0.29117 -0.31862,0.35403 -0.0106,0.005 0.0105,-0.0301 0,-0.0354 -0.0317,-0.0158 -0.0726,-0.0112 -0.10621,0 -0.0954,0.0318 -0.0886,0.0767 -0.17701,0.1062 -0.16738,0.0558 -0.12063,0.34747 -0.17701,0.46024 -0.0152,0.0305 -0.0628,0.0741 -0.0708,0.1062 -0.0114,0.0458 0.0334,0.10824 0,0.14161 -0.1357,0.13571 -0.14906,0.30557 -0.21241,0.49564 -0.0374,0.11216 -0.12803,0.18525 -0.17702,0.28322 -0.0236,0.0472 0.0236,0.12981 0,0.17701 -0.10056,0.20113 -0.10722,0.42687 -0.21241,0.63725 -0.184,0.368 -0.9745,0.58507 -1.27449,0.88506 -0.0319,0.0319 -0.0497,0.1348 -0.0708,0.17702 -0.17137,0.34274 -0.0123,0.6742 -0.10621,0.95587 -0.0818,0.24546 -0.0953,0.50914 -0.21241,0.74345 -0.28664,0.57327 -1.13882,0.83493 -1.66392,1.09748 -0.26133,0.13066 -0.5181,0.31535 -0.74346,0.49563 -0.0537,0.043 -0.12835,0.0576 -0.17701,0.10621 -0.18067,0.18067 -0.44804,0.49445 -0.53104,0.74346 -0.0408,0.12248 -0.0268,0.23498 -0.10621,0.35402 -0.0404,0.0607 -0.1588,0.1148 -0.21241,0.14161 -0.0597,0.0299 -0.0895,0.0999 -0.14161,0.14161 -0.23605,0.18884 -0.59972,0.36512 -0.88506,0.46023 -0.58622,0.19541 -0.24266,0.35059 -0.56645,0.56645 -0.07,0.0466 -0.0867,0.008 -0.14161,0.0354 -0.28075,0.14038 -0.56867,0.26036 -0.84966,0.35402 -0.0637,0.0213 -0.14869,-0.0212 -0.21241,0 -0.22202,0.074 -0.44853,0.12099 -0.67265,0.17702 -0.10815,0.027 -0.25099,0.001 -0.35403,0.0354 -0.11093,0.037 -0.28266,0.21241 -0.38942,0.21241 -0.14752,0 -0.39478,0.10354 -0.53104,0.0354 -0.0299,-0.0149 -0.0409,-0.0559 -0.0708,-0.0708 -0.0211,-0.0105 -0.0541,0.0167 -0.0708,0 -0.0395,-0.0395 0,-0.32739 0,-0.38943 0,-0.0167 0.0521,-0.0354 0.0354,-0.0354 -0.13278,0 -0.46023,0.0673 -0.46023,-0.10621 0,-0.0528 0.0926,0.0512 0.14161,0.0708 0.0429,0.0172 0.13017,0 0.17701,0"
     style="fill:none;fill-rule:evenodd;stroke:#000000;stroke-width:1px;stroke-linecap:butt;stroke-linejoin:miter;stroke-opacity:1" /><path
     sodipodi:nodetypes="cccccccccccsccsccccsccccccccccsccsssscsssccccccccccc"
     inkscape:connector-curvature="0"
     id="path4926"
     d="m 106.77411,226.15098 c -0.10801,0.054 -0.17762,0.15962 -0.28322,0.21242 -0.0427,0.0214 -0.17969,-0.0327 -0.21242,0 -0.10541,0.10541 -0.19026,0.20134 -0.35402,0.28322 -0.17653,0.0883 -0.46322,-0.0162 -0.63725,0.0708 -0.17471,0.0874 -0.1059,0.15039 -0.35402,0.21242 -0.16594,0.0415 -0.48944,-0.003 -0.63725,0.0708 -0.11467,0.0573 -0.23819,0.17381 -0.35403,0.21242 -0.11935,0.0398 -0.77732,0.14008 -0.84966,0.21241 -0.21849,0.21849 -0.73457,0.41376 -1.06207,0.49564 -0.2189,0.0547 -0.50111,0.32136 -0.70806,0.42483 -0.5867,0.29335 -0.94909,0.928 -1.27449,1.4161 -0.385729,0.5786 -1.33449,0.91507 -1.911735,1.20369 -0.143335,0.0717 -0.151187,0.37318 -0.212416,0.49564 -0.109354,0.2187 -0.855395,0.81712 -1.062076,0.92046 -0.512729,0.25637 -0.837399,0.25553 -1.345297,0.42483 -0.07905,0.0264 -0.679517,0.11308 -0.708052,0.14161 -0.059,0.059 -0.0118,0.22422 -0.0708,0.28322 -0.130705,0.13071 -0.523301,0.0277 -0.637246,0.14161 -0.149482,0.14949 0.164493,0.4842 -0.28322,0.70805 -0.194605,0.0973 -1.26669,0.0552 -1.345297,0.21242 -0.159919,0.31984 0.07976,1.46396 0.354025,1.62852 0.169472,0.10168 0.389928,0.26577 0.566441,0.35402 0.05895,0.0295 0.238308,-0.0449 0.283221,0 0.0853,0.0853 -0.231533,0.25065 -0.283221,0.35403 -0.05646,0.11292 -0.03379,0.86817 0.0708,0.92046 0.156421,0.0782 0.264026,0.25755 0.424831,0.35403 0.453863,0.27232 1.038909,0.59026 1.416102,0.77886 0.08444,0.0422 0.191633,-0.0229 0.283221,0 0.506698,0.12667 1.963005,-0.0806 2.265763,0.0708 0.141001,0.0705 0.345352,0.163 0.495636,0.28322 0.06388,0.0511 0.246238,0.30013 0.354026,0.35403 0.719723,0.35986 1.433694,0.96998 2.194954,1.27449 0.75399,0.30159 1.74325,0.14161 2.54899,0.14161 0.33102,0 1.06668,0.13931 1.3453,0 0.1174,-0.0587 0.41998,-0.83997 0.49563,-0.99127 0.12979,-0.25958 0.52442,-0.34078 0.63725,-0.56644 0.0472,-0.0944 -0.0472,-0.25962 0,-0.35403 0.20768,-0.41537 0.14161,-2.51179 0.14161,-3.18623 0,-0.24027 -0.10512,-0.78103 0,-0.99127 0.18005,-0.36011 0.24493,-0.77308 0.42483,-1.13288 0.0283,-0.0566 -0.0283,-0.15577 0,-0.21242 0.11914,-0.23828 0.23383,-0.32605 0.35402,-0.56644 0.0283,-0.0566 -0.0283,-0.15577 0,-0.21241 0.11346,-0.22693 0.27008,-0.4562 0.35403,-0.70805 0.0456,-0.13666 0.007,-0.298 0.0708,-0.42483 0.0396,-0.0791 0.10206,-0.0625 0.14161,-0.14161 0.18531,-0.37061 -0.14469,-0.84658 0.28322,-1.2745 0.26672,-0.26671 -0.45467,-0.68581 -0.49563,-0.84966 -0.0313,-0.12541 -0.0883,-2.3015 -0.0708,-2.33657 0.12331,-0.24662 0.20186,-0.47253 0.27794,-0.84162 -0.14339,0.0117 -0.43815,0.0367 -0.63197,0.13357 z"
     style="fill:none;fill-rule:evenodd;stroke:#000000;stroke-width:1px;stroke-linecap:butt;stroke-linejoin:miter;stroke-opacity:1" /><circle
     r="2.1028044"
     cy="225.63629"
     cx="107.24303"
     id="path4930"
     style="fill:#ffffff;fill-opacity:1;fill-rule:nonzero;stroke:#000000;stroke-width:1;stroke-miterlimit:4;stroke-dasharray:none;stroke-opacity:1" /></g><path
   d="M335.333,248.667H0V0h335.333V248.667z"
   id="path5"
   fill="none" />
		
		
		
		
		
		
		
		
		
		
		
		
		<g
   id="g4861"
   transform="matrix(-1,0,0,-1,352.813,262.56625)"><path
     id="path7"
     d="m 281.916,82.473 -54.506,31.47 12.858,-33.466 54.506,-31.47 -12.858,33.466 z"
     inkscape:connector-curvature="0"
     style="opacity:0.3;fill:#ffff99" /><path
     id="path9"
     d="m 227.331,114.088 -102.533,68.125 0,-43.573 115.005,-58.09 -12.472,33.538 z"
     inkscape:connector-curvature="0"
     style="opacity:0.3;fill:#ffff99" /><path
     id="path11"
     d="M 124.797,181.952 227.362,113.971 281.82,82.53 294.726,49.036"
     inkscape:connector-curvature="0"
     style="fill:none;stroke:#000000;stroke-width:0.25" /><path
     id="path13"
     d="M 294.727,49.036 240.269,80.477 124.797,138.64"
     inkscape:connector-curvature="0"
     style="fill:none;stroke:#000000;stroke-width:0.25" /><g
     id="g15">
			<path
   id="path17"
   d="m 233.815,97.224 -3.31,6.633 -2.461,4.967 -2.087,3.973 -1.623,2.721 -1.104,1.296 -0.578,-0.185 -0.073,-1.631 0.371,-2.933 0.723,-3.998 0.931,-4.689 0.977,-4.918 0.834,-4.598 0.491,-3.703 -0.02,-2.281 -0.648,-0.478 -1.313,1.477 -1.928,3.326 -2.41,4.823 -2.715,5.806 -2.822,6.205"
   inkscape:connector-curvature="0"
   style="fill:none;stroke:#ff0000;stroke-width:0.65539998" />
			<path
   id="path19"
   d="m 215.049,109.037 -2.745,6.032 -2.507,5.364 -2.157,4.298 -1.732,2.968 -1.264,1.461 -0.795,-0.101 -0.351,-1.63 0.035,-3.012 0.339,-4.155 0.514,-4.91 0.539,-5.178 0.401,-4.859 0.082,-3.911 -0.385,-2.382 -0.953,-0.425 -1.544,1.697 -2.083,3.706 -2.491,5.32 -2.739,6.362 -2.813,6.768"
   inkscape:connector-curvature="0"
   style="fill:none;stroke:#ff0000;stroke-width:0.65539998" />
			<path
   id="path21"
   d="m 192.401,122.452 -2.723,6.556 -2.507,5.822 -2.204,4.677 -1.851,3.262 -1.473,1.674 -1.107,0.032 -0.77,-1.58 -0.484,-3.046 -0.273,-4.269 -0.169,-5.096 -0.18,-5.412 -0.32,-5.098 -0.594,-4.099 -0.978,-2.448 -1.416,-0.325 -1.868,1.998 -2.252,4.183 -2.522,5.922 -2.666,7.022 -2.679,7.422"
   inkscape:connector-curvature="0"
   style="fill:none;stroke:#ff0000;stroke-width:0.65539998" />
			<path
   id="path23"
   d="m 163.366,139.65 -2.583,7.157 -2.41,6.347 -2.198,5.114 -1.976,3.621 -1.755,1.955 -1.568,0.242 -1.419,-1.439 -1.322,-2.979 -1.278,-4.281 -1.31,-5.181 -1.405,-5.554 -1.557,-5.254 -1.76,-4.206 -1.98,-2.432 -2.18,-0.115 -2.338,2.419 -2.423,3.794 -2.429,6.66 -2.382,6.802 -2.295,7.844"
   inkscape:connector-curvature="0"
   style="fill:none;stroke:#ff0000;stroke-width:0.65539998" />
		</g><g
     id="g25">
			<path
   id="path27"
   d="m 288.347,65.74 -3.351,5.957 -3.152,5.453 -2.785,4.486 -2.276,3.165 -1.677,1.605 -1.05,-0.031 -0.449,-1.592 0.058,-2.911 0.435,-3.883 0.622,-4.381 0.623,-4.383 0.429,-3.875 0.061,-2.917 -0.45,-1.591 -1.045,-0.033 -1.678,1.605 -2.278,3.167 -2.784,4.49 -3.155,5.45 -3.35,5.957"
   inkscape:connector-curvature="0"
   style="fill:none;stroke:#ff0000;stroke-width:0.65539998" />
			<path
   id="path29"
   d="m 261.093,81.475 -3.35,5.956 -3.153,5.453 -2.785,4.486 -2.276,3.166 -1.677,1.605 -1.048,-0.032 -0.45,-1.591 0.059,-2.912 0.432,-3.881 0.623,-4.382 0.622,-4.382 0.432,-3.877 0.06,-2.917 -0.45,-1.591 -1.046,-0.033 -1.678,1.605 -2.278,3.167 -2.784,4.49 -3.155,5.45 -3.35,5.957"
   inkscape:connector-curvature="0"
   style="fill:none;stroke:#ff0000;stroke-width:0.65539998" />
		</g><path
     id="path31"
     d="m 254.425,132.923 c -5.274,3.046 -12.561,2.606 -20.609,-2.041 C 217.719,121.589 204.67,98.986 204.67,80.4 c 0,-9.293 3.262,-15.824 8.537,-18.869"
     inkscape:connector-curvature="0"
     style="opacity:0.22999998;fill:none;stroke:#000000;stroke-width:0.5" /><path
     id="path33"
     d="m 153.943,176.993 c 0,18.587 -13.049,26.121 -29.146,16.827 -16.097,-9.294 -29.146,-31.896 -29.146,-50.482 0,-18.586 13.049,-26.121 29.146,-16.827 16.097,9.294 29.146,31.895 29.146,50.482 z"
     inkscape:connector-curvature="0"
     style="opacity:0.48999999;fill:#ffccff;stroke:#000000;stroke-width:0.5" /><path
     id="path35"
     d="m 104.19,124.473 109.018,-62.94 -0.095,0.05 c 5.282,-3.104 12.606,-2.686 20.702,1.988 16.097,9.293 29.146,31.896 29.146,50.482 0,9.293 -3.263,15.824 -8.537,18.869 l -0.001,0 -109.017,62.94 c 5.274,-3.045 8.537,-9.575 8.537,-18.869 0,-18.587 -13.05,-41.189 -29.146,-50.482 -8.096,-4.674 -15.42,-5.092 -20.702,-1.988 l 0.095,-0.05 z"
     inkscape:connector-curvature="0"
     style="opacity:0.5;fill:#ffe6ff;stroke:#000000;stroke-width:0.5" /><path
     id="path37"
     d="M 43.934,206.853 308.879,53.885"
     inkscape:connector-curvature="0"
     style="fill:#ffffff;stroke:#000000;stroke-width:0.5;stroke-dasharray:4, 2" /><path
     id="path39"
     d="m 124.797,181.952 -54.507,31.47 0,-43.573 54.507,-31.209"
     inkscape:connector-curvature="0"
     style="fill:none;stroke:#000000;stroke-width:0.25" /><path
     id="path41"
     d="m 124.797,181.952 -54.507,31.47 0,-43.573 54.507,-31.47 0,43.573 z"
     inkscape:connector-curvature="0"
     style="opacity:0.3;fill:#ffff99" /><g
     id="g43">
			<path
   id="path45"
   d="m 124.797,160.166 -1.363,7.518 -1.36,6.863 -1.363,5.603 -1.363,3.884 -1.361,1.852 -1.364,-0.278 -1.363,-2.311 -1.363,-4.028 -1.359,-5.292 -1.364,-5.943 -1.363,-5.943 -1.361,-5.284 -1.364,-4.036 -1.364,-2.31 -1.36,-0.281 -1.363,1.853 -1.364,3.885 -1.361,5.609 -1.363,6.857 -1.364,7.518"
   inkscape:connector-curvature="0"
   style="fill:none;stroke:#ff0000;stroke-width:0.65539998" />
			<path
   id="path47"
   d="m 97.544,175.9 -1.363,7.518 -1.361,6.863 -1.363,5.603 -1.363,3.884 -1.361,1.852 -1.363,-0.279 -1.364,-2.31 -1.363,-4.028 -1.36,-5.292 -1.363,-5.943 -1.364,-5.943 -1.361,-5.285 -1.363,-4.036 -1.364,-2.31 -1.361,-0.28 -1.363,1.853 -1.364,3.884 -1.361,5.608 -1.363,6.857 -1.364,7.518"
   inkscape:connector-curvature="0"
   style="fill:none;stroke:#ff0000;stroke-width:0.65539998" />
		</g></g>
		<g
   id="g4908"
   transform="translate(19.87651,26.146268)"><path
     inkscape:connector-curvature="0"
     id="path55"
     d="m 24.22519,140.68223 3.14,0.688 0,2.25 -3.14,-2.938 z" /><path
     inkscape:connector-curvature="0"
     id="path57"
     d="m 36.481385,148.95193 -3.287,-1.962 0.61,-1.785 2.677,3.747 z" /></g>
		
		
		<g
   id="g83"
   transform="matrix(-1.3704406,0,0,-1.3725978,425.41965,263.73464)"
   style="stroke-width:0.7291187;stroke-miterlimit:4;stroke-dasharray:none">
			<g
   id="g85"
   style="stroke-width:0.7291187;stroke-miterlimit:4;stroke-dasharray:none"
   transform="translate(-44.846042,-23.728984)">
				<path
   d="m 220.3895,97.52225 -3.62493,3.97608 -3.26249,-1.883056 6.88742,-2.093024 z"
   id="path87"
   inkscape:connector-curvature="0"
   style="stroke-width:0.7291187;stroke-miterlimit:4;stroke-dasharray:none" />
				<path
   d="M 170.57,76.99"
   id="path89"
   inkscape:connector-curvature="0"
   style="stroke:#ff0000;stroke-width:0.7291187;stroke-miterlimit:4;stroke-dasharray:none" />
			</g>
			<path
   d="m 170.57,76.99 -44.809,25.867"
   id="path91"
   inkscape:connector-curvature="0"
   style="fill:none;stroke:#000000;stroke-width:0.7291187;stroke-linecap:square;stroke-miterlimit:4;stroke-dasharray:none" />
		</g>
		
		
		
		
		
		
		
		<g
   id="g117">
			<path
   d="M66.226,245.462l-44.583-25.74v-51.479l44.583,25.741V245.462z"
   id="path119"
   stroke-width="0.5"
   stroke="#000000"
   fill="none" />
			<path
   d="M43.934,181.112v51.479"
   id="path121"
   stroke-width="0.5"
   stroke="#000000"
   fill="none" />
			<path
   d="M66.226,219.723l-44.583-25.741"
   id="path123"
   stroke-width="0.5"
   stroke="#000000"
   fill="none" />
		</g>
		<g
   id="g125">
			<path
   d="M331.312,92.129l-44.583-25.74V14.909l44.583,25.741V92.129z"
   id="path127"
   stroke-width="0.5"
   stroke="#000000"
   fill="none" />
			<path
   d="M309.02,27.779v51.479"
   id="path129"
   stroke-width="0.5"
   stroke="#000000"
   fill="none" />
			<path
   d="M331.312,66.39l-44.583-25.741"
   id="path131"
   stroke-width="0.5"
   stroke="#000000"
   fill="none" />
		</g>
		<g
   id="g133"
   transform="translate(265.37756,-152.3726)">
			<g
   id="g135">
				<path
   d="m 43.934,183.453 1.948,8.375 -3.897,-2.25 1.949,-6.125 z"
   id="path137"
   inkscape:connector-curvature="0"
   style="fill:#ff0000" />
				<path
   d="M 43.934,190.703"
   id="path139"
   inkscape:connector-curvature="0"
   style="stroke:#ff0000" />
			</g>
			<g
   id="g141">
				<path
   d="m 43.934,230.253 -1.948,-8.375 3.897,2.25 -1.949,6.125 z"
   id="path143"
   inkscape:connector-curvature="0"
   style="fill:#ff0000" />
				<path
   d="M 43.934,223.003"
   id="path145"
   inkscape:connector-curvature="0"
   style="stroke:#ff0000" />
			</g>
			<path
   d="m 43.934,190.703 0,32.3"
   id="path147"
   inkscape:connector-curvature="0"
   style="fill:none;stroke:#ff0000;stroke-linecap:square" />
		</g>
		
		
		<g
   id="g4884"
   transform="translate(-11.615492,59.879862)"><g
     transform="translate(-253.53815,94.325803)"
     id="g149">
			<path
   style="fill:none;stroke:#000000;stroke-width:0.40000001;stroke-linecap:square;stroke-dasharray:4, 2"
   inkscape:connector-curvature="0"
   id="path151"
   d="M 322.104,19.564 309.02,53.52" />
		</g><path
     style="fill:none;stroke:#000000;stroke-width:0.40000001;stroke-linecap:square;stroke-dasharray:4, 2"
     inkscape:connector-curvature="0"
     id="path153"
     d="m 55.481854,122.1048 0,-17.862" /><path
     style="fill:none;stroke:#000000;stroke-width:0.5"
     inkscape:connector-curvature="0"
     id="path155"
     d="m 57.868407,108.23185 c 2.282253,1.16765 5.521415,3.29387 7.723512,4.80988" /></g>
		<g
   id="g157"
   transform="translate(-265.37756,154.35514)">
			<g
   id="g159">
				<path
   d="m 315.949,35.533 -0.315,7.399 -3.662,-3.653 3.977,-3.746 z"
   id="path161"
   inkscape:connector-curvature="0"
   style="fill:#ff0000" />
				<path
   d="M 310.292,44.616"
   id="path163"
   inkscape:connector-curvature="0"
   style="stroke:#ff0000" />
			</g>
			<g
   id="g165">
				<path
   d="m 302.089,71.508 0.317,-7.399 3.66,3.653 -3.977,3.746 z"
   id="path167"
   inkscape:connector-curvature="0"
   style="fill:#ff0000" />
			</g>
			<path
   d="M 313.803,41.105 309.02,53.52 304.237,65.935"
   id="path169"
   inkscape:connector-curvature="0"
   style="fill:none;stroke:#ff0000;stroke-linecap:square" />
		</g>
	<g
   id="g3542"
   transform="matrix(0.55948541,0,0,0.55948541,4.4774974,-2.1241437)"><text
   sodipodi:linespacing="125%"
   id="text3503"
   y="179.70282"
   x="233.16124"
   style="font-style:normal;font-weight:normal;font-size:40px;line-height:125%;font-family:sans-serif;letter-spacing:0px;word-spacing:0px;fill:#000000;fill-opacity:1;stroke:none;stroke-width:1px;stroke-linecap:butt;stroke-linejoin:miter;stroke-opacity:1"
   xml:space="preserve"><tspan
     style="font-style:italic;font-variant:normal;font-weight:normal;font-stretch:normal;font-size:25px;font-family:'Palatino Linotype';-inkscape-font-specification:'Palatino Linotype'"
     y="179.70282"
     x="233.16124"
     id="tspan3505"
     sodipodi:role="line">B</tspan></text>

<path
   inkscape:connector-curvature="0"
   id="path3529"
   d="m 244.86821,161.04069 c -0.15281,-0.15282 -0.18216,-0.23862 -0.15772,-0.46113 0.0228,-0.2078 0.17764,-0.42436 0.65929,-0.92223 l 0.48614,-0.50253 -4.29561,-0.001 c -2.44183,-6.3e-4 -4.38841,-0.0228 -4.51066,-0.0511 -0.11832,-0.0274 -0.2574,-0.10216 -0.30915,-0.16597 -0.10799,-0.13325 -0.12203,-0.46654 -0.0252,-0.59277 0.1858,-0.24199 0.0762,-0.23641 4.96284,-0.25295 l 4.62851,-0.0156 -0.23336,-0.46821 c -0.40882,-0.82024 -0.43056,-1.30428 -0.067,-1.49228 0.34468,-0.17824 0.57692,-0.0176 0.77645,0.53681 0.2376,0.66033 0.48612,1.01132 0.99125,1.40001 0.62555,0.48134 0.56921,0.76052 -0.25049,1.24146 -0.65327,0.38328 -1.20344,0.82672 -1.57594,1.27019 -0.57484,0.68436 -0.78129,0.77572 -1.07937,0.47764 z"
   style="fill:#000000" /></g><g
   transform="matrix(-1.3704406,0,0,-1.3725978,359.75009,225.82462)"
   id="g83-9-4-7"
   style="stroke-width:0.7291187;stroke-miterlimit:4;stroke-dasharray:none"><g
     id="g85-8-8-2"
     style="stroke-width:0.7291187;stroke-miterlimit:4;stroke-dasharray:none"
     transform="translate(-21.079706,-10.110611)"><path
       inkscape:connector-curvature="0"
       d="m 197.07106,84.082031 -3.62493,3.976079 -3.26249,-1.883055 6.88742,-2.093024 z"
       id="path87-38-3-4"
       style="stroke-width:0.7291187;stroke-miterlimit:4;stroke-dasharray:none" /><path
       style="stroke:#ff0000;stroke-width:0.7291187;stroke-miterlimit:4;stroke-dasharray:none"
       inkscape:connector-curvature="0"
       d="M 170.57,76.99"
       id="path89-3-3-9" /></g><path
     style="fill:none;stroke:#000000;stroke-width:0.7291187;stroke-linecap:square;stroke-miterlimit:4;stroke-dasharray:none"
     inkscape:connector-curvature="0"
     d="m 170.57,76.99 -44.809,25.867"
     id="path91-4-8-2" /></g><g
   transform="matrix(-1.3704406,0,0,-1.3725978,402.44514,251.09323)"
   id="g83-9-4-8"
   style="stroke-width:0.7291187;stroke-miterlimit:4;stroke-dasharray:none"><g
     id="g85-8-8-30"
     style="stroke-width:0.7291187;stroke-miterlimit:4;stroke-dasharray:none"
     transform="translate(-36.579491,-19.189526)"><path
       inkscape:connector-curvature="0"
       d="m 212.23154,93.040498 -3.62493,3.976079 -3.26249,-1.883055 6.88742,-2.093024 z"
       id="path87-38-3-9"
       style="stroke-width:0.7291187;stroke-miterlimit:4;stroke-dasharray:none" /><path
       style="stroke:#ff0000;stroke-width:0.7291187;stroke-miterlimit:4;stroke-dasharray:none"
       inkscape:connector-curvature="0"
       d="M 170.57,76.99"
       id="path89-3-3-97" /></g><path
     style="fill:none;stroke:#000000;stroke-width:0.7291187;stroke-linecap:square;stroke-miterlimit:4;stroke-dasharray:none"
     inkscape:connector-curvature="0"
     d="m 170.57,76.99 -44.809,25.867"
     id="path91-4-8-8" /></g><g
   id="g4773"
   transform="matrix(0.97268932,0,0,0.97268932,-125.42294,38.696234)"><circle
     r="15.020032"
     cy="188.18634"
     cx="149.14891"
     id="path4751"
     style="fill:#ffffff;fill-opacity:1;fill-rule:nonzero;stroke:#000000;stroke-width:1;stroke-miterlimit:4;stroke-dasharray:none;stroke-opacity:1" /><path
     inkscape:connector-curvature="0"
     id="path4753"
     d="m 148.09752,198.55017 c -0.12319,-0.26055 -0.24872,-0.12436 -0.40053,-0.20027 -0.0847,-0.0423 -0.10481,-0.15487 -0.1502,-0.20027 -0.0166,-0.0165 -0.30498,-0.12745 -0.35047,-0.1502 -0.16646,-0.0832 -0.30579,-0.25572 -0.40054,-0.35046 -0.0656,-0.0656 -1.03898,0.0501 -1.10146,0.0501 -0.0306,0 -0.18076,-0.0195 -0.20027,0 -0.0972,0.0972 -0.41969,0.11929 -0.4506,0.1502 -0.056,0.056 -0.0727,0.27298 -0.10014,0.3004 -0.0343,0.0343 -0.98019,0.48621 -1.15153,0.40054 -0.11542,-0.0577 -0.0848,-0.19263 -0.20027,-0.25034 -0.0746,-0.0373 -0.44874,-0.0482 -0.50067,-0.10013 -0.0251,-0.0251 -0.11737,-0.0673 -0.1502,-0.10013 -0.0857,-0.0857 0.0912,-0.7599 -0.0501,-0.90121 -0.029,-0.029 -0.17125,-0.0711 -0.20027,-0.10013 -0.0516,-0.0516 -0.0986,-0.19873 -0.1502,-0.25033 -0.0417,-0.0417 -0.15855,-0.008 -0.20027,-0.0501 -0.0334,-0.0334 -0.0167,-0.11682 -0.0501,-0.1502 -0.164,-0.16401 -0.1502,-0.32976 -0.1502,-0.6008 0,-0.17529 -0.0229,-0.35472 0.0501,-0.50067 0.053,-0.10592 -0.034,-0.36653 0.0501,-0.4506 0.0384,-0.0384 0.62062,-0.0198 0.70093,-0.10013 0.025,-0.025 0.025,-0.0751 0.0501,-0.10014 0.0167,-0.0167 0.0835,0.0167 0.10013,0 0.0167,-0.0167 -0.0167,-0.0834 0,-0.10013 0.0668,-0.0668 0.13351,-0.13351 0.20027,-0.20027 0.0705,-0.0705 0.24647,-0.0963 0.3004,-0.1502 0.0918,-0.0918 -0.0918,-0.45894 0,-0.55073 0.12619,-0.1262 0.36428,-0.16402 0.50067,-0.3004 0.0419,-0.0419 0.25307,-0.003 0.3004,-0.0501 0.0318,-0.0318 -0.0208,-0.15858 0,-0.20027 0.0441,-0.0883 0.20737,-0.1573 0.25033,-0.20026 0.025,-0.025 0.12517,0.025 0.1502,0 0.26512,-0.26512 0.6822,0.0845 0.95127,-0.0501 0.13546,-0.0677 0.22243,-0.0722 0.3004,-0.1502 0.0168,-0.0168 -0.0168,-0.0834 0,-0.10013 0.051,-0.051 0.0976,0.0551 0.1502,-0.0501 0.0151,-0.0302 -0.0231,-0.12706 0,-0.1502 0.0754,-0.0754 1.31595,-0.0359 1.35181,0 0.18778,0.18778 -0.0886,0.66244 0.10013,0.85113 0.13827,0.13828 0.21694,0.21694 0.35047,0.35047 0.0132,0.0132 0.12958,0 0.1502,0 0.10422,0 0.46816,0.13264 0.55073,0.0501 0.0334,-0.0334 -0.0334,-0.16689 0,-0.20027 0.0764,-0.0764 0.29118,0.009 0.35047,-0.0501 0.0616,-0.0616 0.003,-0.85372 0.0501,-0.9012 0.0167,-0.0167 0.13351,-0.0334 0.1502,-0.0501 0.0668,-0.0668 -0.0668,-0.33377 0,-0.40053 0.0167,-0.0167 0.0835,0.0167 0.10013,0 0.025,-0.025 -0.025,-0.12517 0,-0.1502 0.025,-0.025 0.12517,0.025 0.1502,0 0.0118,-0.0118 -0.0167,-0.0501 0,-0.0501 0.0668,0 0,0.13351 0,0.20027 0,0.24871 -0.0461,0.55474 0.10013,0.70094 0.0953,0.0953 0.44233,0.14193 0.50067,0.20026 0.0473,0.0473 0.008,0.25852 0.0501,0.3004 0.16184,0.16185 0.35526,0.4554 0.6008,0.70094 0.0685,0.0685 0.1609,0.56143 0.20027,0.6008 0.26103,0.26104 0.55079,0.45066 0.80106,0.70093 0.0324,0.0324 -0.0501,0.1057 -0.0501,0.1502 0,0.0518 0.0286,0.22169 0,0.25034 -0.029,0.029 -0.12072,0.0912 -0.1502,0.1502 -0.0334,0.0667 -0.0334,0.48404 0,0.55073 0.0636,0.1272 0.13955,0.23969 0.20026,0.3004 0.0133,0.0133 0,0.12959 0,0.1502 0,0.16814 0.0753,0.55041 0,0.70094 -0.0444,0.0889 -0.10576,0.16145 -0.1502,0.25033 -0.0267,0.0534 0.0267,0.14687 0,0.20027 -0.0507,0.10148 -0.0974,0.0974 -0.1502,0.1502 -0.0725,0.0725 -0.0679,0.31826 -0.1502,0.40053 -0.0236,0.0236 -0.0765,-0.0236 -0.10013,0 -0.25751,0.25751 -0.43929,0.0694 -0.70093,0.20027 -0.29043,0.14521 -0.0375,0.18773 -0.1502,0.3004 -0.0405,0.0405 -0.33686,0 -0.40054,0 -0.0957,0 -0.53988,0.0609 -0.6008,0 -0.0584,-0.0584 -0.0918,-0.14185 -0.1502,-0.20026 -0.0167,-0.0167 -0.0834,0.0167 -0.10013,0 -0.0168,-0.0168 0.0168,-0.0834 0,-0.10014 -0.0167,-0.0167 -0.13352,-0.0334 -0.1502,-0.0501 -0.0167,-0.0167 -0.0334,-0.13351 -0.0501,-0.1502 -0.0334,-0.0334 -0.11682,-0.0167 -0.1502,-0.0501 -0.0417,-0.0417 0.0417,-0.20861 0,-0.25034 -0.1035,-0.1035 -0.37073,0.0703 -0.40054,0.10014 -0.059,0.059 -0.16688,0 -0.25033,0 z"
     style="fill:none;fill-rule:evenodd;stroke:#000000;stroke-width:1px;stroke-linecap:butt;stroke-linejoin:miter;stroke-opacity:1" /><path
     inkscape:connector-curvature="0"
     id="path4755"
     d="m 149.64959,201.20371 c -0.48591,-0.0386 -0.0769,-0.17705 -0.20026,-0.3004 -0.0166,-0.0166 -0.1928,-0.20775 -0.10014,-0.30041 0.0746,-0.0745 0.51654,0 0.65087,0 0.0949,0 0.42321,-0.12752 0.50067,-0.0501 0.0166,0.0166 0.0166,0.38391 0,0.40053 -0.0318,0.0318 -0.15858,-0.0208 -0.20027,0 -0.0853,0.0427 -0.1564,0.10633 -0.20027,0.1502 -0.0334,0.0334 -0.16688,-0.0334 -0.20026,0 -0.025,0.025 0.025,0.12517 0,0.1502 -0.0602,0.0602 -0.16778,-0.0294 -0.25034,-0.0501 z"
     style="fill:none;fill-rule:evenodd;stroke:#000000;stroke-width:1px;stroke-linecap:butt;stroke-linejoin:miter;stroke-opacity:1" /><path
     inkscape:connector-curvature="0"
     id="path4761"
     d="m 134.27909,186.08354 c 0.14105,0.29967 0.20348,0.40375 0.35047,0.55074 0.04,0.04 -0.0263,0.1978 0,0.25033 0.0473,0.0945 0.16025,0.11018 0.20027,0.1502 0.0472,0.0472 0,0.26702 0,0.20027 0,-0.28515 0.18453,-0.18454 0.3004,-0.3004 0.074,-0.074 0.10194,-0.20389 0.1502,-0.3004 0.0695,-0.13902 0.23154,-0.18148 0.3004,-0.25034 0.052,-0.052 0.0106,-0.37177 0.0501,-0.4506 0.0369,-0.0737 0.0664,-0.0664 0.10014,-0.10013 0.0251,-0.0251 0.0172,-0.16745 0.0501,-0.20027 0.0525,-0.0525 0.31332,-0.23901 0.35047,-0.35047 0.0638,-0.19134 -0.0391,-1.06242 0,-1.10147 0.0352,-0.0352 0.44159,-0.10013 0.50067,-0.10013 0.0861,0 0.54245,-0.15849 0.65087,-0.0501 0.10262,0.10263 0.068,0.36845 0.10013,0.40054 0.0619,0.0619 0.27081,0.38573 0.40053,0.4506 0.12332,0.0617 -0.0452,-0.14533 0.15021,0.0501 0.0417,0.0417 -0.0417,0.20862 0,0.25034 0.15168,0.15168 0.50939,0.009 0.65086,0.1502 0.0679,0.0679 -0.0334,0.33385 -0.0501,0.35047 -0.0167,0.0167 -0.0835,-0.0167 -0.10014,0 -0.0334,0.0334 0.0334,0.16689 0,0.20026 -0.0584,0.0584 -0.24199,-0.008 -0.3004,0.0501 -0.13351,0.13351 0.13351,0.66756 0,0.80107 -0.0559,0.0559 -0.14431,0.19438 -0.20026,0.25033 -0.0292,0.0292 -0.0292,0.67174 0,0.70094 0.11119,0.11119 0.23406,0.20026 0.4506,0.20026 0.0306,0 0.18076,0.0195 0.20026,0 0.0711,-0.0711 0,-0.58922 0,-0.70093 0,-0.11171 -0.0711,-0.62985 0,-0.70094 0.0531,-0.0531 0.14928,0.002 0.20027,-0.10013 0.0668,-0.13351 -0.0668,-0.36716 0,-0.50067 0.0776,-0.15516 0.39007,0.0897 0.40053,0.10014 0.025,0.025 -0.025,0.12516 0,0.1502 0.005,0.005 0.1452,0.005 0.1502,0 0.04,-0.04 0.0557,-0.153 0.15021,-0.20027 0.0419,-0.0209 0.22607,-0.0759 0.25033,-0.10013 0.0167,-0.0167 0.0334,-0.13351 0.0501,-0.1502 0.0705,-0.0705 0.29653,-0.0462 0.35046,-0.10014 0.04,-0.04 -0.0263,-0.1978 0,-0.25033 0.10419,-0.20837 -0.003,0.0535 0.10014,-0.0501 0.0334,-0.0334 -0.0334,-0.16689 0,-0.20026 0.0328,-0.0328 0.1157,-0.0311 0.1502,-0.10014 0.0874,-0.17475 -0.0987,-0.24888 -0.1502,-0.3004 -0.0456,-0.0456 0,-0.37889 0,-0.4506 0,-0.19092 -0.0213,-1.93128 0,-1.9526 0.0501,-0.0501 0.25033,0.0501 0.3004,0 0.0278,-0.0279 0.0808,-0.11551 0.1502,-0.1502 0.0525,-0.0263 0.21227,-0.012 0.25033,-0.0501 0.0505,-0.0505 0.0551,-0.16019 0.10014,-0.25034 0.0345,-0.069 0.11742,-0.0674 0.1502,-0.10013 0.25524,-0.25525 0.22694,-0.38884 0.55073,-0.55073 0.23756,-0.11878 0.64179,0.0698 1.00134,-0.0501 0.0853,-0.0284 0.22066,0.0399 0.3004,0 0.1104,-0.0552 0.19202,-0.14608 0.3004,-0.20027 0.0309,-0.0155 0.18171,-0.0315 0.20026,-0.0501 0.20369,-0.20369 -0.0637,-0.58714 0.0501,-0.70094 0.0167,-0.0167 0.13351,-0.0334 0.1502,-0.0501 0.0446,-0.0446 0.0235,-0.14709 0.0501,-0.20026 0.0455,-0.091 0.19085,-0.0406 0.25033,-0.10014 0.002,-0.002 0.0798,-0.17995 0.10014,-0.20026 0.0251,-0.0251 0.16744,-0.0173 0.20026,-0.0501 0.0148,-0.0148 0.0627,-0.51326 0.10014,-0.55073 0.0864,-0.0864 0.32885,-0.0284 0.40053,-0.10014 0.032,-0.032 0.032,-0.61888 0,-0.65087 -0.0412,-0.0412 -0.29132,-0.0911 -0.3004,-0.10013 -0.0187,-0.0187 -0.0187,-0.43188 0,-0.4506 0.0494,-0.0494 0.21385,-0.0136 0.25033,-0.0501 0.0485,-0.0485 0.0147,-0.0795 0.0501,-0.1502 0.0473,-0.0945 0.16025,-0.11018 0.20027,-0.1502 0.0614,-0.0614 -0.0238,-0.32668 0.0501,-0.40053 0.0717,-0.0717 0.31415,-0.0137 0.40054,-0.10014 0.0231,-0.0231 -0.0151,-0.11997 0,-0.1502 0.0542,-0.10837 0.14506,-0.18999 0.20027,-0.3004 0.0631,-0.12627 0.0224,-0.32284 0.10013,-0.40053 0.0236,-0.0236 0,-0.0668 0,-0.10013 0,-0.35286 -0.23275,-0.28282 -0.40054,-0.45061 -0.0236,-0.0236 0.0149,-0.0703 0,-0.10013 -0.0369,-0.0737 -0.0664,-0.0664 -0.10013,-0.10013 -0.1502,-0.1502 0.1502,-0.751 0,-0.9012 -0.0668,-0.0668 -0.0501,0.0834 -0.0501,-0.0501"
     style="fill:none;fill-rule:evenodd;stroke:#000000;stroke-width:1px;stroke-linecap:butt;stroke-linejoin:miter;stroke-opacity:1" /><path
     inkscape:connector-curvature="0"
     id="path4763"
     d="m 138.73503,189.53815 c 0.12188,0.39142 0.21252,0.85726 0.50067,1.00133 0.12593,0.063 0.31988,-0.0153 0.4506,0.0501 0.0643,0.0321 0.40401,0.40053 0.25034,0.40053 -0.002,0 0.1502,-0.37423 0.1502,-0.40053 0,-0.26652 -0.0632,-0.55731 -0.25034,-0.65087 -0.268,-0.134 -0.936,0.0653 -1.15153,-0.1502 -0.0167,-0.0167 -0.0834,0.0167 -0.10014,0 -0.0581,-0.0581 0.22003,-0.11068 0.0501,-0.4506"
     style="fill:none;fill-rule:evenodd;stroke:#000000;stroke-width:1px;stroke-linecap:butt;stroke-linejoin:miter;stroke-opacity:1" /><path
     inkscape:connector-curvature="0"
     id="path4765"
     d="m 140.68764,189.13761 c 0.14844,-0.0534 0.27692,-0.12672 0.35047,-0.20026 0.0419,-0.0419 0.003,-0.25307 0.0501,-0.3004 0.20331,-0.20332 0.51142,-0.47211 0.65087,-0.75101 0.0845,-0.16899 -0.12844,-0.67263 0,-0.80106 0.11471,-0.11471 0.2811,0.16558 0.35047,0.20026 0.16121,0.0806 0.37738,0.0269 0.50067,0.1502 0.0316,0.0316 0.0231,0.50459 0,0.55074 -0.0193,0.0386 -0.0334,0.1836 -0.0501,0.20027 -0.0925,0.0925 -0.39299,0.18517 -0.4506,0.3004 -0.0942,0.18844 0.18587,0.51506 0.0501,0.65086 -0.0278,0.0278 -0.1155,0.0808 -0.1502,0.1502 -0.0316,0.0632 0.0481,0.25234 0,0.3004 -0.0187,0.0187 -0.43187,0.0187 -0.4506,0 -0.07,-0.07 -0.14754,-0.24944 -0.3004,-0.3004 -0.0759,-0.0253 -0.40323,-0.0501 -0.3004,-0.0501"
     style="fill:none;fill-rule:evenodd;stroke:#000000;stroke-width:1px;stroke-linecap:butt;stroke-linejoin:miter;stroke-opacity:1" /><path
     inkscape:connector-curvature="0"
     id="path4767"
     d="m 141.43864,191.09022 c 0.0668,-0.0334 0.13351,-0.0668 0.20027,-0.10014 0,-0.0167 -0.0118,-0.0383 0,-0.0501 0.0124,-0.0124 0.89153,-0.20027 1.00133,-0.20027 0.0877,0 0.4949,0.0558 0.55074,0 0.0874,-0.0874 0.21003,-0.18012 0.35046,-0.25033 0.12129,-0.0607 0.31238,-0.23836 0.4506,-0.10014 0.22767,0.22766 0.50067,0.0159 0.50067,0.4506 0,0.0206 0.0133,0.13695 0,0.1502 -0.14417,0.14418 -0.31796,0.25912 -0.50067,0.35047 -0.005,0.002 -1.39908,0.0515 -1.40186,0.0501 -0.0931,-0.0465 -0.15481,-0.15251 -0.25034,-0.20027 -0.2125,-0.10625 -0.44257,-0.10013 -0.70093,-0.10013"
     style="fill:none;fill-rule:evenodd;stroke:#000000;stroke-width:1px;stroke-linecap:butt;stroke-linejoin:miter;stroke-opacity:1" /><path
     inkscape:connector-curvature="0"
     id="path4769"
     d="m 147.29645,190.99008 c -0.24731,0.0103 -0.43909,-0.46987 -0.6008,-0.55073 -0.0303,-0.0152 -0.12922,-0.0291 -0.1502,-0.0501 -0.007,-0.007 -0.0912,-0.14573 -0.10013,-0.1502 -0.0299,-0.0149 -0.0703,0.0149 -0.10014,0 -0.003,-0.001 -0.19569,-0.20484 -0.1502,-0.25033 0.10215,-0.10215 0.83301,0.11826 0.85114,0.10013 0.0501,-0.0501 -0.0501,-0.25033 0,-0.3004 0.12965,-0.12965 0.50063,3e-5 0.6008,-0.10013 0.11213,-0.11213 0.54455,-0.0501 0.751,-0.0501 0.9061,0 1.48192,-0.0351 2.25301,0.35047 0.21226,0.10613 0.49252,0.0419 0.65086,0.20027 0.14443,0.14442 -0.0905,0.4698 -0.0501,0.55073 0.0211,0.0422 0.079,0.0579 0.10013,0.10013 0.05,0.0999 0.0247,0.67624 0,0.70094 -0.0418,0.0418 -0.37656,0 -0.4506,0 -0.0475,0 -0.27017,0.0302 -0.3004,0 -0.0803,-0.0803 -0.13357,-0.28377 -0.20027,-0.35047 -0.066,-0.066 -0.54715,0 -0.65087,0 -0.0206,0 -0.13694,-0.0132 -0.1502,0 -0.0236,0.0236 0.0149,0.0703 0,0.10014 -0.0362,0.0724 -0.2776,0.11376 -0.35046,0.1502 -0.15929,0.0796 -0.56897,0 -0.75101,0 -0.40007,0 -0.6844,-0.33394 -0.9012,-0.55074 -0.0734,-0.0734 -0.0451,0.0951 -0.0501,0.10013 -0.059,0.059 -0.16689,0 -0.25034,0 z"
     style="fill:none;fill-rule:evenodd;stroke:#000000;stroke-width:1px;stroke-linecap:butt;stroke-linejoin:miter;stroke-opacity:1" /><path
     inkscape:connector-curvature="0"
     id="path4771"
     d="m 144.19231,189.48808 c -0.37122,-0.27879 -0.36828,-0.5363 -0.55073,-0.9012 -0.18829,-0.37658 0.92339,-0.23924 1.10147,-0.1502 0.0417,0.0208 0.16851,-0.0318 0.20026,0 0.0247,0.0247 0.05,0.60101 0,0.70093 -0.047,0.094 -0.10881,0.0674 -0.1502,0.1502 -0.0263,0.0525 0.04,0.21038 0,0.25034 -0.0417,0.0417 -0.15854,0.008 -0.20026,0.0501 -0.0147,0.0146 -0.10536,0.20027 -0.1502,0.20027 -0.0373,0 -0.0167,-0.0834 -0.0501,-0.10013 -0.0149,-0.007 -0.0334,0 -0.0501,0 -0.0501,-0.0668 -0.10013,-0.13351 -0.1502,-0.20027 z"
     style="fill:none;fill-rule:evenodd;stroke:#000000;stroke-width:1px;stroke-linecap:butt;stroke-linejoin:miter;stroke-opacity:1" /></g><g
   transform="matrix(-1.3704406,0,0,-1.3725978,381.50656,238.3327)"
   id="g83-9-4-8-9"
   style="stroke-width:0.7291187;stroke-miterlimit:4;stroke-dasharray:none"><g
     id="g85-8-8-30-0"
     style="stroke-width:0.7291187;stroke-miterlimit:4;stroke-dasharray:none"
     transform="translate(-36.579491,-19.189526)"><path
       inkscape:connector-curvature="0"
       d="m 212.23154,93.040498 -3.62493,3.976079 -3.26249,-1.883055 6.88742,-2.093024 z"
       id="path87-38-3-9-4"
       style="stroke-width:0.7291187;stroke-miterlimit:4;stroke-dasharray:none" /><path
       style="stroke:#ff0000;stroke-width:0.7291187;stroke-miterlimit:4;stroke-dasharray:none"
       inkscape:connector-curvature="0"
       d="M 170.57,76.99"
       id="path89-3-3-97-7" /></g><path
     style="fill:none;stroke:#000000;stroke-width:0.7291187;stroke-linecap:square;stroke-miterlimit:4;stroke-dasharray:none"
     inkscape:connector-curvature="0"
     d="m 170.57,76.99 -44.809,25.867"
     id="path91-4-8-8-5" /></g><text
   xml:space="preserve"
   style="font-style:normal;font-weight:normal;font-size:40px;line-height:125%;font-family:sans-serif;letter-spacing:0px;word-spacing:0px;fill:#000000;fill-opacity:1;stroke:none;stroke-width:1px;stroke-linecap:butt;stroke-linejoin:miter;stroke-opacity:1"
   x="53.529633"
   y="254.14818"
   id="text4937"
   sodipodi:linespacing="125%"
   transform="matrix(0.86819923,-0.49621578,0.49621578,0.86819923,0,0)"><tspan
     sodipodi:role="line"
     id="tspan4939"
     x="53.529633"
     y="254.14818"
     style="font-style:normal;font-variant:normal;font-weight:normal;font-stretch:normal;font-size:10px;font-family:'Palatino Linotype';-inkscape-font-specification:'Palatino Linotype'">Faraday screen</tspan></text>

<text
   xml:space="preserve"
   style="font-style:normal;font-weight:normal;font-size:40px;line-height:125%;font-family:sans-serif;letter-spacing:0px;word-spacing:0px;fill:#000000;fill-opacity:1;stroke:none;stroke-width:1px;stroke-linecap:butt;stroke-linejoin:miter;stroke-opacity:1"
   x="292.83099"
   y="96.274895"
   id="text4937-0"
   sodipodi:linespacing="125%"
   transform="matrix(0.99999048,0.00436414,-0.00436414,0.99999048,0,0)"><tspan
     sodipodi:role="line"
     id="tspan4939-8"
     x="292.83099"
     y="96.274895"
     style="font-style:normal;font-variant:normal;font-weight:normal;font-stretch:normal;font-size:10px;font-family:'Palatino Linotype';-inkscape-font-specification:'Palatino Linotype'">Source</tspan></text>

<text
   xml:space="preserve"
   style="font-style:normal;font-weight:normal;font-size:40px;line-height:125%;font-family:sans-serif;letter-spacing:0px;word-spacing:0px;fill:#000000;fill-opacity:1;stroke:none;stroke-width:1px;stroke-linecap:butt;stroke-linejoin:miter;stroke-opacity:1"
   x="15.301927"
   y="251.76698"
   id="text4937-0-7"
   sodipodi:linespacing="125%"
   transform="matrix(0.99999048,0.00436414,-0.00436414,0.99999048,0,0)"><tspan
     sodipodi:role="line"
     id="tspan4939-8-4"
     x="15.301927"
     y="251.76698"
     style="font-style:normal;font-variant:normal;font-weight:normal;font-stretch:normal;font-size:10px;font-family:'Palatino Linotype';-inkscape-font-specification:'Palatino Linotype'">Observer</tspan></text>

<text
   xml:space="preserve"
   style="font-style:normal;font-weight:normal;font-size:40px;line-height:125%;font-family:sans-serif;letter-spacing:0px;word-spacing:0px;fill:#000000;fill-opacity:1;stroke:none;stroke-width:1px;stroke-linecap:butt;stroke-linejoin:miter;stroke-opacity:1"
   x="47.83968"
   y="162.369"
   id="text4937-0-7-4"
   sodipodi:linespacing="125%"
   transform="matrix(0.99999048,0.00436414,-0.00436414,0.99999048,0,0)"><tspan
     sodipodi:role="line"
     id="tspan4939-8-4-6"
     x="47.83968"
     y="162.369"
     style="font-style:italic;font-variant:normal;font-weight:normal;font-stretch:normal;font-size:9.99999997px;font-family:'Palatino Linotype';-inkscape-font-specification:'Palatino Linotype'">ϕ <tspan
   style="font-style:normal;font-size:7.49999998px"
   id="tspan4995">(RM)</tspan></tspan></text>

</g>
</svg>